<?xml version="1.0" encoding="utf-8"?>
<!-- Generator: Adobe Illustrator 23.0.1, SVG Export Plug-In . SVG Version: 6.00 Build 0)  -->
<svg version="1.1" id="Layer_1" xmlns="http://www.w3.org/2000/svg" xmlns:xlink="http://www.w3.org/1999/xlink" x="0px" y="0px"
	 viewBox="0 0 138.8 39.4" style="enable-background:new 0 0 138.8 39.4;" xml:space="preserve">
<style type="text/css">
	.st0{fill:#FFFFFF;}
</style>
<path class="st0" d="M138.1,20.1c-0.4,0-0.6,0.4-0.8,1.1c-0.5,2.5-1.1,3-1.8,3c-0.8,0-1.5-1.2-1.7-3.7c-0.1-1.9-0.1-5.5,0.1-9.1
	c0-0.7-0.2-1.4-2.1-2.2c-0.8-0.3-2.1-0.8-2.7,0.7c-1.7,4.1-2.4,7.5-2.6,8.8c0,0.1-0.1,0.1-0.1-0.1c-0.1-1.1-0.3-3-0.4-7.1
	c0-0.8-0.2-1.5-1.1-2c-0.6-0.4-2.3-1-2.9-0.2c-0.5,0.6-1.2,2.3-1.8,4.3c-0.5,1.6-0.9,2.7-0.9,2.7s0-4.4,0-6c0-0.6-0.4-0.8-0.6-0.9
	c-0.6-0.2-1.7-0.4-2.2-0.4c-0.6,0-0.7,0.3-0.7,0.8c0,0.1-0.1,5.7-0.1,9.7v0.6c-0.3,1.8-1.4,4.3-2.6,4.3s-1.7-1-1.7-5.8
	c0-2.8,0.1-4,0.1-5.9c0-1.1,0.1-2,0.1-2.2c0-0.6-1.1-0.9-1.6-1c-0.5-0.1-0.9-0.2-1.3-0.1c-0.5,0-0.8,0.3-0.8,0.8v0.7
	c-0.6-1-1.6-1.6-2.3-1.8c-1.8-0.5-3.6-0.1-5,1.9c-1.1,1.5-1.8,3.3-2,5.8c-0.2,1.8-0.1,3.7,0.2,5.3c-0.4,1.8-1.2,2.5-2,2.5
	c-1.2,0-2.1-2-2-5.4c0.1-2.3,0.5-3.8,1-6.1c0.2-1,0-1.5-0.4-2c-0.4-0.4-1.2-0.7-2.4-0.4c-0.9,0.2-2.1,0.4-3.2,0.6
	c0,0,0.1-0.3,0.1-0.7c0.3-2.5-2.4-2.3-3.3-1.5c-0.5,0.5-0.9,1-1,2c-0.2,1.6,1.1,2.4,1.1,2.4c-0.4,2-1.5,4.5-2.6,6.4
	c-0.6,1-1,1.7-1.6,2.5c0-0.3,0-0.6,0-0.9c0-4.1,0-7.4,0.1-8.6c0-1.1,0.1-2,0.1-2.2c0-0.4-0.3-0.6-0.8-0.8c-0.5-0.2-1.1-0.3-1.6-0.4
	c-0.7-0.1-1.2,0.3-1.2,0.8v0.6c-0.6-1-1.6-1.6-2.3-1.8c-1.8-0.5-3.6-0.1-5,1.9c-1.1,1.5-1.8,3.7-2,5.8c-0.2,1.9-0.2,3.6,0.1,5
	c-0.3,1.4-1.1,2.8-2,2.8c-1.2,0-1.8-1-1.8-5.8c0-2.8,0.1-4,0.1-5.9c0-1.1,0.1-2,0.1-2.2c0-0.6-1.1-0.9-1.6-1c-0.5-0.1-1-0.2-1.3-0.1
	c-0.5,0-0.8,0.4-0.8,0.7v0.7c-0.6-1-1.6-1.6-2.3-1.8c-1.8-0.5-3.6,0-5,1.9c-0.9,1.3-1.7,2.7-2,5.8c-0.1,0.9-0.2,1.7-0.2,2.5
	c-0.4,2.2-2,4.8-3.3,4.8c-0.8,0-1.5-1.5-1.5-4.7c0-4.2,0.3-10.3,0.3-10.9c0,0,1.7,0,2,0c0.8,0,1.6,0,2.7,0c0.6,0,1.1-2,0.5-2.3
	c-0.3-0.1-2.1-0.2-2.8-0.2c-0.6,0-2.3-0.1-2.3-0.1s0.2-4,0.2-4.4c0-0.4-0.4-0.5-0.7-0.6c-0.6-0.3-1.2-0.4-1.9-0.5
	c-0.9-0.2-1.4,0-1.4,0.8c-0.1,1.2-0.2,4.7-0.2,4.7c-0.7,0-3-0.1-3.7-0.1c-0.6,0-1.3,2.7-0.4,2.8c1,0,2.8,0.1,3.9,0.1
	c0,0-0.1,6.1-0.1,8v0.6c-0.6,3.4-2.9,5.2-2.9,5.2c0.5-2.2-0.5-3.9-2.3-5.3c-0.7-0.5-2-1.5-3.4-2.6c0,0,0.8-0.8,1.6-2.5
	c0.5-1.2,0.6-2.5-0.8-2.8c-2.2-0.5-3.9,1.1-4.5,2.8c-0.4,1.3-0.2,2.3,0.6,3.3c0.1,0.1,0.1,0.1,0.2,0.2c-0.5,0.9-1.2,2.2-1.7,3.2
	c-1.6,2.7-2.8,4.9-3.6,4.9c-0.7,0-0.7-2.2-0.7-4.2c0-1.8,0.1-4.4,0.2-7.1c0-0.9-0.4-1.4-1.2-1.9c-0.5-0.3-1.4-0.8-2-0.8
	c-0.8,0-3.3,0.1-5.6,6.8c-0.3,0.8-0.9,2.4-0.9,2.4l0.1-8.1c0-0.2-0.1-0.4-0.3-0.5c-0.4-0.2-1.4-0.6-2.4-0.6c-0.4,0-0.7,0.2-0.7,0.6
	l-0.1,12.6c0,1,0,2.1,0.1,2.6c0.1,0.5,0.3,0.9,0.4,1.1c0.2,0.2,0.4,0.4,0.8,0.5c0.3,0.1,2.2,0.3,2.3-0.4c0.1-0.8,0.1-1.8,1.1-5.2
	c1.5-5.3,3.5-7.9,4.4-8.8c0.2-0.2,0.3-0.2,0.3,0.1c0,1.2-0.2,4.1-0.3,6.5c-0.3,6.6,0.9,7.8,2.7,7.8c1.3,0,3.2-1.3,5.1-4.6
	c1.2-2.1,2.4-4.1,3.3-5.5c0.6,0.6,1.3,1.2,1.9,1.8c1.6,1.5,2.1,2.9,1.7,4.2c-0.3,1-1.2,2.1-3,1.1c-0.5-0.3-0.7-0.5-1.2-0.9
	c-0.3-0.2-0.7-0.2-0.9,0c-0.7,0.5-1,1.1-1.3,1.9c-0.2,0.8,0.6,1.2,1.3,1.5c0.7,0.3,2.1,0.6,3.1,0.6c3.6,0.1,6.5-1.7,8.5-6.6
	c0.4,4.2,1.9,6.5,4.6,6.5c1.8,0,3.6-2.3,4.4-4.6c0.2,0.9,0.6,1.7,1,2.4c2.1,3.3,6.1,2.6,8.1-0.2c0.6-0.9,0.7-1.2,0.7-1.2
	c0.3,2.6,2.4,3.5,3.6,3.5c1.4,0,2.7-0.6,3.7-2.8c0.1,0.2,0.2,0.5,0.4,0.7c2.1,3.3,6,2.6,8.1-0.2c0.1-0.1,0.2-0.3,0.2-0.4l0.1,1.7
	c0,0-1.1,1-1.9,1.7c-3.1,2.8-5.4,5-5.6,7.5c-0.2,3.2,2.4,4.4,4.3,4.5c2.1,0.2,3.9-1,5-2.6c1-1.4,1.6-4.5,1.5-7.5
	c0-1.2,0-2.7-0.1-4.4c1.1-1.3,2.3-2.9,3.4-4.7c1.2-2,2.5-4.8,3.2-6.9c0,0,1.1,0,2.4-0.1c0.4,0,0.5,0.1,0.4,0.3
	c-0.1,0.3-1.5,6-0.2,9.7c0.9,2.6,3,3.4,4.2,3.4c1.4,0,2.8-1.1,3.5-2.7c0.1,0.2,0.2,0.3,0.3,0.5c2.1,3.3,6,2.6,8.1-0.2
	c0.5-0.6,0.7-1.2,0.7-1.2c0.4,2.7,2.5,3.5,3.7,3.5c1.3,0,2.4-0.5,3.4-2.8c0,1,0.1,1.8,0.2,2.1c0.1,0.2,0.4,0.4,0.7,0.5
	c1.2,0.4,2.3,0.2,2.8,0.1c0.3-0.1,0.5-0.3,0.6-0.9c0.1-1.6,0-4.4,0.5-6.4c0.8-3.4,1.6-4.7,2-5.4c0.2-0.4,0.4-0.4,0.4,0
	c0,0.8,0.1,3.1,0.4,6.2c0.2,2.3,0.5,3.6,0.8,4.1c0.7,1.2,1.5,1.3,2.2,1.3c0.4,0,1.4-0.1,1.3-0.9c0-0.4,0-2.7,0.8-6.1
	c0.5-2.2,1.4-4.2,1.8-4.9c0.1-0.3,0.2-0.1,0.2,0c-0.1,1.5-0.2,6.5,0.4,9.2c0.8,3.7,3.3,4.1,4.1,4.1c1.8,0,3.3-1.4,3.8-5
	C138.8,20.8,138.7,20.1,138.1,20.1z M62.7,17.9c-0.1,1.9-0.5,3.5-1.1,4.7c-1.1,2.1-3.2,2.8-4.2-0.3c-0.7-2.2-0.5-5.2-0.2-6.8
	c0.4-2.4,1.5-4.1,3.1-3.9C62.1,11.8,62.9,13.9,62.7,17.9z M79.1,17.9c-0.1,1.8-0.6,3.6-1.1,4.6c-1.1,2.1-3.3,2.8-4.2-0.3
	c-0.6-2.1-0.5-4.8-0.2-6.5c0.4-2.2,1.4-4.2,3.1-4.2C78.5,11.6,79.4,13.5,79.1,17.9z M79.6,30.2c0,3.3-0.5,6.2-1.6,7
	c-1.6,1.2-3.7,0.3-3.3-2.1c0.4-2.1,2.2-4.3,4.9-6.9C79.6,28.2,79.6,28.8,79.6,30.2z M108,17.9c-0.1,2-0.5,3.5-1.1,4.6
	c-1.1,2.1-3.2,2.8-4.2-0.3c-0.5-1.7-0.5-4.4-0.2-6.7c0.4-2.4,1.4-4.1,3.1-4C107.4,11.8,108.2,13.9,108,17.9z"/>
<path class="st0" d="M7.1,0.1c-2.8,1.2-6,4.5-7,8.8c-1.3,5.3,4,7.6,4.4,6.9c0.5-0.9-0.9-1.2-1.2-3.9C3,8.2,4.6,4.2,6.7,2.5
	c0.4-0.3,0.4,0.1,0.4,1C7.1,5,7,18.4,7,21.2c0,3.8-0.2,5-0.4,6.2c-0.3,1.2-0.7,2-0.4,2.3c0.4,0.3,2.1-0.5,3-1.8
	c1.2-1.6,1.6-3.5,1.6-5.6c0.1-2.5,0.1-6.6,0.1-8.8c0-2.1,0-8.3,0-12C10.9,0.6,8.3-0.4,7.1,0.1"/>
</svg>
