<?xml version="1.0" encoding="utf-8"?>
<!-- Generator: Adobe Illustrator 23.0.1, SVG Export Plug-In . SVG Version: 6.00 Build 0)  -->
<svg version="1.1" id="Layer_1" xmlns="http://www.w3.org/2000/svg" xmlns:xlink="http://www.w3.org/1999/xlink" x="0px" y="0px"
	 viewBox="0 0 148.34 36" style="enable-background:new 0 0 148.34 36;" xml:space="preserve">
<style type="text/css">
	.st0{fill:#FFFFFF;}
</style>
<g>
	<g>
		<path class="st0" d="M146.34,29.05c0.42-0.05,0.64-0.29,0.64-0.68c0-0.48-0.29-0.71-0.88-0.71h-0.95v2.51h0.36v-1.09h0.44
			l0.01,0.01l0.69,1.08h0.38l-0.74-1.12L146.34,29.05z M145.92,28.8h-0.42v-0.85h0.53c0.27,0,0.59,0.05,0.59,0.4
			C146.62,28.77,146.31,28.8,145.92,28.8z"/>
		<path class="st0" d="M145.96,26.55c-1.33,0-2.38,1.04-2.38,2.37c0,1.33,1.04,2.37,2.38,2.37c1.33,0,2.37-1.04,2.37-2.37
			C148.34,27.59,147.29,26.55,145.96,26.55z M145.96,30.98c-1.14,0-2.03-0.9-2.03-2.06c0-1.16,0.89-2.06,2.03-2.06
			c1.13,0,2.02,0.9,2.02,2.06C147.99,30.09,147.1,30.98,145.96,30.98z"/>
	</g>
	<g>
		<g>
			<polygon class="st0" points="0,5.32 5.55,5.32 5.55,25.55 15.83,25.55 15.83,30.68 0,30.68 			"/>
			<g>
				<path class="st0" d="M18.29,13.49h5.34v17.18h-5.34V13.49z M20.96,4.95c1.71,0,3.1,1.39,3.1,3.1c0,1.71-1.39,3.09-3.1,3.09
					c-1.71,0-3.09-1.38-3.09-3.09C17.86,6.34,19.25,4.95,20.96,4.95"/>
			</g>
			<polygon class="st0" points="45.94,5.32 51.27,5.32 51.27,20.47 57.32,13.48 63.86,13.48 56.86,21.43 63.71,30.68 57,30.68 
				51.34,22.18 51.27,22.18 51.27,30.68 45.94,30.68 			"/>
			<path class="st0" d="M26.58,13.49h5.12v2.35h0.07c0.71-1.35,2.45-2.77,5.05-2.77c5.41,0,6.4,3.56,6.4,8.18v9.42h-5.34v-8.35
				c0-1.99-0.04-4.55-2.78-4.55c-2.77,0-3.2,2.17-3.2,4.41v8.5h-5.34V13.49z"/>
			<path class="st0" d="M75.09,20.08c0.03-1.78-1.35-3.27-3.28-3.27c-2.35,0-3.63,1.6-3.77,3.27H75.09z M79.61,27.69
				c-1.71,2.17-4.52,3.42-7.29,3.42c-5.34,0-9.61-3.56-9.61-9.08c0-5.51,4.27-9.07,9.61-9.07c4.98,0,8.11,3.56,8.11,9.07v1.67H68.05
				c0.42,2.03,1.96,3.35,4.02,3.35c1.75,0,2.92-0.89,3.81-2.1L79.61,27.69z"/>
			<path class="st0" d="M91.55,17.64c-2.67,0-4.27,1.78-4.27,4.38c0,2.6,1.6,4.38,4.27,4.38c2.67,0,4.27-1.78,4.27-4.38
				C95.82,19.42,94.22,17.64,91.55,17.64 M100.73,30.67h-4.91v-2.28h-0.07c-0.82,1.25-2.88,2.71-5.3,2.71
				c-5.13,0-8.51-3.7-8.51-8.93c0-4.81,2.99-9.22,7.9-9.22c2.21,0,4.27,0.6,5.48,2.28h0.07v-9.9h5.34V30.67z"/>
		</g>
		<path class="st0" d="M139.4,0h-30.68c-1.46,0-2.66,1.16-2.66,2.6V33.4c0,1.43,1.19,2.6,2.66,2.6h30.68c1.47,0,2.66-1.16,2.66-2.6
			V2.6C142.07,1.16,140.87,0,139.4,0z M116.75,30.68h-5.34V13.5h5.34V30.68z M114.08,11.15c-1.71,0-3.1-1.39-3.1-3.1
			c0-1.71,1.38-3.1,3.1-3.1c1.71,0,3.09,1.39,3.09,3.1C117.17,9.76,115.78,11.15,114.08,11.15z M136.74,30.68h-5.34v-8.35
			c0-1.99-0.04-4.56-2.78-4.56c-2.78,0-3.2,2.17-3.2,4.41v8.5h-5.33V13.5h5.12v2.35h0.07c0.71-1.35,2.46-2.77,5.05-2.77
			c5.41,0,6.4,3.56,6.4,8.18V30.68z"/>
	</g>
</g>
</svg>
