<?xml version="1.0" encoding="utf-8"?>
<!-- Generator: Adobe Illustrator 23.0.1, SVG Export Plug-In . SVG Version: 6.00 Build 0)  -->
<svg version="1.1" id="Layer_1" xmlns="http://www.w3.org/2000/svg" xmlns:xlink="http://www.w3.org/1999/xlink" x="0px" y="0px"
	 viewBox="0 0 388 76" style="enable-background:new 0 0 388 76;" xml:space="preserve">
<style type="text/css">
	.st0{fill:#FFFFFF;}
</style>
<title>Wordmark_White</title>
<desc>Created with Sketch.</desc>
<g id="Page-1">
	<g id="Wordmark_White">
		<path id="Shape" class="st0" d="M196,67.5c0,1.3,0,1.6,0.9,2.5l5.1,5v0.2h-22.6v-9.6c-2.3,6.3-8.3,10.5-15,10.4
			c-11.6,0-20-9.1-20-25.9c0-15.7,9.1-26.2,21.8-26.2c5.7-0.4,10.9,2.9,13.1,8.1V10.9c0.2-1-0.2-2-1-2.6l-4.8-4.7V3.5L196,0.8V67.5z
			 M179.4,64.5V33c-1.6-2-4.1-3.2-6.7-3.2c-5.5,0-10.8,5-10.8,19.8c0,13.9,4.6,18.8,10.3,18.8C175,68.3,177.7,66.8,179.4,64.5z
			 M210.9,75.2V32.6c0.1-1-0.2-1.9-0.9-2.6l-5-5.2v-0.2h22.6v43.2c0,1.3,0,1.6,0.9,2.5l5,4.7v0.2L210.9,75.2z M210.1,9.1
			c0-5,4.1-9.1,9.1-9.1c5,0,9.1,4.1,9.1,9.1s-4.1,9.1-9.1,9.1C214.2,18.2,210.1,14.2,210.1,9.1L210.1,9.1z M288.5,67.4
			c0,1.3,0,1.7,0.9,2.6l5.1,5v0.2h-22.7V64.3c-2.1,6.9-8.4,11.7-15.5,11.7c-10.1,0-15.4-7.4-15.4-21.3c0-6.7,0-14.1,0.2-22.3
			c0.2-0.9-0.2-1.9-0.9-2.5l-5-5v-0.2h22.4c0,0.3,0,26.4,0,27.8c0,9.1,1.3,15.2,7,15.2c3.1-0.2,5.8-1.9,7.3-4.6V32.6
			c0.1-1-0.2-1.9-0.9-2.6l-5-5.2v-0.2h22.6V67.4z M365.3,75.2c0-1.6,0.3-22.6,0.3-27.4c0-9.1-1.4-15.4-7.8-15.4
			c-3.2,0.1-6.2,1.7-8,4.4c0.6,2.8,0.9,5.8,0.9,8.7c0,6.3-0.2,14.4-0.3,22.4c-0.2,0.9,0.2,1.9,0.9,2.5l5.1,4.7v0.2h-22.8
			c0-1.5,0.3-22.6,0.3-27.4c0-9.3-1.4-15.4-7.7-15.4c-3.1,0.1-5.9,1.8-7.5,4.5v31c0,1.3,0,1.6,0.9,2.5l5,4.7v0.2H302V32.8
			c0.1-1-0.2-1.9-0.9-2.6l-5-5.3v-0.2h22.6v10.8c2.1-7.1,8.8-11.9,16.2-11.6c7.5,0,12.6,4.2,14.8,12.2c2.4-7.3,9.3-12.3,17-12.2
			c10.1,0,15.8,7.4,15.8,21.5c0,6.7-0.2,14.4-0.3,22.4c-0.2,1,0.2,1.9,1,2.5l5,4.7v0.2H365.3z M81.8,68.6l6.7,6.4v0.2h-34V75
			l6.8-6.4c0.7-0.6,1.1-1.5,0.9-2.5v-41c0-1.7,0-4.1,0.3-6.1L39.7,76h-0.3L15.7,23.6c-0.5-1.3-0.7-1.4-1-2.3v34.4
			c-0.3,2.3,0.1,4.6,1.1,6.7L25.3,75v0.2H0V75l9.5-12.6c1-2.1,1.4-4.4,1.1-6.7v-38c0.2-1.9-0.4-3.7-1.6-5.2L2.3,3.7V3.5h24.2
			l20.3,44.4L64.7,3.5h23.7v0.2l-6.7,7.4c-0.8,0.6-1.2,1.6-1,2.6v52.4C80.6,67,81,68,81.8,68.6z M108.4,48v0.2
			c0,13,6.7,18.2,14.5,18.2c6.6,0.2,12.6-3.5,15.4-9.4h0.2C135.8,69.9,127.9,76,116,76c-12.8,0-24.9-7.8-24.9-25.7
			c0-18.9,12.1-26.4,25.5-26.4c10.8,0,22.3,5.1,22.3,21.5c0,0.3,0,1.4,0,2.6H108.4z M108.4,45.4h14.9c0-1.3,0-2.2,0-2.6
			c0-13.4-2.8-16.9-6.9-16.9C111.4,25.8,108.3,31.1,108.4,45.4L108.4,45.4z"/>
	</g>
</g>
</svg>
