<?xml version="1.0" encoding="utf-8"?>
<!-- Generator: Adobe Illustrator 23.0.1, SVG Export Plug-In . SVG Version: 6.00 Build 0)  -->
<svg version="1.1" id="Layer_1" xmlns="http://www.w3.org/2000/svg" xmlns:xlink="http://www.w3.org/1999/xlink" x="0px" y="0px"
	 viewBox="0 0 250 250" style="enable-background:new 0 0 250 250;" xml:space="preserve">
<style type="text/css">
	.st0{fill:#FFFFFF;}
</style>
<path d="M249.42,225.84l-0.72-13.73l-1.34-27.46l-1.26-27.45c-0.36-9.15-0.78-18.29-0.99-27.44c-0.22-9.15-0.31-18.32-0.33-27.49
	l0.02-13.76L245,74.74c0.12-9.18,0.48-18.35,0.79-27.52c0.16-4.59,0.41-9.17,0.62-13.75l0.19-3.44l0.1-1.73
	c0-0.63-0.08-1.26-0.25-1.85c-0.7-2.41-3.05-4.23-5.59-4.19c-4.93,0.24-9.87,0.45-14.8,0.63c0.12-2.48,0.24-4.97,0.36-7.45
	l0.19-3.44l0.1-1.73c0-0.63-0.08-1.26-0.25-1.85c-0.7-2.41-3.05-4.23-5.59-4.19c-18.36,0.9-36.7,1.38-55.06,1.54l-13.77,0.06
	l-13.76-0.09c-9.17-0.1-18.33-0.28-27.46-0.67c-9.14-0.35-18.29-0.93-27.44-1.38L69.64,2.9L55.91,2.17L28.43,0.85
	c-4.58-0.22-9.16-0.46-13.74-0.63l-3.44-0.14L9.46,0.01C9.36,0.01,9.32,0,9.19,0L8.78,0.01C8.51,0.03,8.22,0.04,7.99,0.08
	C7.49,0.14,7.01,0.25,6.53,0.39c-1.9,0.58-3.57,1.77-4.72,3.34C1.24,4.51,0.78,5.38,0.48,6.3C0.18,7.24,0.01,8.11,0,9.21l1.79,27.64
	l1.75,27.47c0.56,9.16,1,18.32,1.41,27.48c0.34,9.16,0.61,18.32,0.59,27.48c-0.09,18.33-0.82,36.67-1.8,54.99l-0.78,13.74
	l-0.91,13.73c-0.31,4.58-0.63,9.15-0.99,13.73l-0.26,3.43l-0.14,1.77c-0.03,0.82,0.07,1.67,0.29,2.44c0.87,3.16,3.86,5.66,7.4,5.68
	l13.07-0.29c-0.12,1.67-0.23,3.34-0.36,5.01l-0.26,3.43l-0.14,1.77c-0.03,0.82,0.07,1.67,0.29,2.44c0.87,3.16,3.86,5.66,7.4,5.68
	l27.58-0.61l27.51-0.5c18.33-0.28,36.68-0.7,54.9-0.36c18.25,0.41,36.58,1.29,54.88,2.2l27.47,1.4l13.73,0.73l3.43,0.19l1.81,0.1
	c0.1,0,0.13,0.01,0.29,0.01l0.46-0.01c0.3-0.01,0.63-0.03,0.88-0.07c0.55-0.07,1.08-0.18,1.61-0.33c2.11-0.63,3.98-1.94,5.26-3.67
	c0.65-0.86,1.16-1.83,1.49-2.85c0.17-0.51,0.31-1.03,0.39-1.56c0.04-0.27,0.08-0.52,0.11-0.8c0.02-0.3,0.04-0.6,0.04-0.91
	L249.42,225.84z"/>
<path class="st0" d="M219.19,111.67c0.73-18.41,2.11-36.75,3.36-55.08l1.92-27.49l0.93-13.74l0.23-3.44l0.11-1.71
	c0.01-0.52-0.06-1.04-0.2-1.54c-0.57-2.03-2.56-3.58-4.66-3.57c-18.32,0.83-36.67,1.87-55,2.95c-18.35,1.03-36.67,2.33-55.13,2.73
	c-9.22,0.14-18.42,0.19-27.62,0.03l-13.79-0.24l-13.78-0.43c-9.18-0.32-18.36-0.8-27.53-1.29c-4.59-0.24-9.17-0.48-13.76-0.81
	l-3.44-0.23L9.18,7.71c-0.05,0-0.15-0.01-0.16-0.01L9,7.71c-0.02,0-0.02-0.01-0.06,0c-0.08,0-0.15,0.02-0.23,0.04
	C8.41,7.82,8.1,8,7.88,8.28C7.76,8.42,7.67,8.57,7.61,8.74C7.55,8.88,7.49,9.16,7.49,9.2l0.2,6.71l0.17,6.89
	c0.11,4.59,0.23,9.19,0.3,13.78c0.15,9.19,0.27,18.38,0.34,27.57l0.14,27.57c0.03,9.19,0.01,18.39-0.18,27.59
	c-0.34,18.39-1.07,36.74-1.67,55.1l-0.94,27.54l-0.47,13.77l-0.12,3.44l-0.06,1.67c0.02,0.32,0.07,0.63,0.17,0.96
	c0.22,0.62,0.62,1.19,1.16,1.55c0.26,0.18,0.54,0.33,0.84,0.41c0.29,0.09,0.64,0.12,0.85,0.12l27.44-1.82
	c9.17-0.59,18.34-1.12,27.52-1.58c18.37-0.9,36.73-1.65,55.23-1.65c18.47,0.05,36.83,0.64,55.21,1.31
	c9.19,0.31,18.37,0.75,27.54,1.21l13.77,0.71l3.44,0.18l1.63,0.09c0.04,0,0.16,0.01,0.14,0.01c-0.01-0.01-0.02-0.01-0.03-0.01
	c-0.01-0.01-0.05,0.01-0.03,0c0.03,0,0.05-0.01,0.07-0.01c0.09-0.03,0.2-0.09,0.28-0.21c0.04-0.05,0.09-0.11,0.11-0.18
	c0.02-0.03,0.03-0.07,0.03-0.11c0-0.02,0.01-0.05,0.01-0.05c-0.01,0.01,0,0.03,0,0.05l-0.59-13.54l-0.54-13.78
	c-0.34-9.19-0.64-18.38-0.78-27.58l-0.2-13.8l0.03-13.81C218.53,130.1,218.82,120.88,219.19,111.67z"/>
</svg>
