<?xml version="1.0" encoding="utf-8"?>
<!-- Generator: Adobe Illustrator 23.0.1, SVG Export Plug-In . SVG Version: 6.00 Build 0)  -->
<svg version="1.1" id="Layer_1" xmlns="http://www.w3.org/2000/svg" xmlns:xlink="http://www.w3.org/1999/xlink" x="0px" y="0px"
	 viewBox="0 0 135.47 60.56" style="enable-background:new 0 0 135.47 60.56;" xml:space="preserve">
<g>
	<path d="M38.51,8.34c3.53-1.94,7.29-3.44,11.15-4.63c3.85-1.22,7.82-2.08,11.82-2.68c4-0.61,8.04-0.93,12.08-1
		c4.04-0.11,8.08,0.09,12.08,0.61c8,1.03,15.73,3.35,23.44,5.18c7.72,1.85,15.47,3.44,23.29,4.88l3.1,0.57l-2.33,2.51
		c-2.82,3.03-5.79,5.97-9,8.65c-0.81,0.66-1.62,1.32-2.44,1.96c-0.84,0.62-1.67,1.25-2.54,1.84c-1.7,1.23-3.47,2.34-5.25,3.44
		c-3.57,2.19-7.3,4.14-11.14,5.86c-0.96,0.44-1.93,0.83-2.9,1.25c-0.97,0.38-2.29,0.94-4.1,1.04c-1.85,0.09-3.41-0.43-4.58-0.93
		c-1.21-0.53-2.04-0.99-2.95-1.44c-7.22-3.75-14.26-7.66-21.39-11.37c-7.13-3.73-14.37-7.16-21.92-10.3l0.17-0.68
		c8.21,0.81,16.24,3.1,23.98,5.89c1.93,0.72,3.86,1.43,5.76,2.21c1.9,0.78,3.79,1.59,5.66,2.4c3.76,1.63,7.44,3.38,11.1,5.14
		c0.9,0.44,1.87,0.95,2.52,1.22c0.69,0.29,1.13,0.36,1.32,0.36c0.38,0.09,2.82-0.88,4.52-1.51c3.65-1.43,7.24-3.03,10.73-4.85
		c3.49-1.82,6.87-3.85,10.22-5.96c3.33-2.14,6.63-4.39,9.76-6.89l0.77,3.08c-7.45-2.63-15.03-4.85-22.81-6.11
		c-7.78-1.28-15.7-1.37-23.44-1.57L73.59,6.24c-3.86-0.05-7.72,0.01-11.57,0.18c-3.86,0.18-7.72,0.49-11.59,0.91
		c-3.87,0.44-7.74,1.03-11.68,1.68L38.51,8.34z"/>
	<path d="M132.2,22.26c0.6,5.84,0.5,11.6,0.2,17.33c-0.16,2.86-0.39,5.72-0.7,8.56l-0.11,1.07c-0.05,0.37-0.08,1-0.43,1.85
		c-0.18,0.43-0.46,0.96-0.96,1.47c-0.5,0.51-1.23,0.93-1.92,1.1c-1.39,0.31-2.12,0.01-2.48-0.04c-1.5-0.34-2.94-0.79-4.33-1.29
		c-1.38-0.5-2.72-1.07-4.02-1.63l-3.93-1.64c-1.32-0.53-2.66-1.01-4-1.48c-1.35-0.44-2.72-0.82-4.1-1.17
		c-5.53-1.32-11.25-1.71-16.93-1.43l-4.25,0.25c-1.41,0.13-2.82,0.2-4.22,0.31c-2.81,0.24-5.6,0.4-8.38,0.68
		c-5.57,0.56-11.07,1.45-16.57,2.3l-2.06,0.32l-1.11,0.17c-0.53,0.06-1.34,0.23-2.66-0.11c-0.64-0.17-1.37-0.56-1.9-1.06
		c-0.54-0.49-0.87-1.01-1.08-1.43c-0.42-0.86-0.48-1.31-0.58-1.6l-0.55-2.05l-2.2-8.21c-0.73-2.75-1.47-5.5-2.17-8.28
		c-0.72-2.77-1.43-5.57-2.04-8.42l0.64-0.29c1.73,2.36,3.27,4.83,4.72,7.36c1.47,2.51,2.79,5.1,4.05,7.72
		c1.25,2.62,2.41,5.29,3.47,7.99l0.79,2.03c0.13,0.39,0.25,0.63,0.17,0.4c-0.04-0.1-0.17-0.32-0.44-0.57
		c-0.27-0.26-0.67-0.47-0.96-0.55c-0.62-0.16-0.7-0.06-0.53-0.13c0.07-0.02,0.28-0.07,0.46-0.1l0.54-0.11l2.16-0.45
		c5.77-1.13,11.66-1.51,17.52-1.55c2.93-0.01,5.86,0.03,8.77,0.31c2.92,0.25,5.81,0.73,8.68,1.23c5.74,1.08,11.38,2.17,17.09,3.03
		c1.42,0.24,2.86,0.42,4.3,0.59c1.43,0.21,2.89,0.36,4.34,0.54l4.35,0.62c1.44,0.23,2.85,0.5,4.22,0.77l4,0.77
		c0.34,0.09,0.33-0.05-0.35,0.08c-0.34,0.08-0.75,0.31-1,0.57c-0.25,0.25-0.35,0.47-0.39,0.57c-0.07,0.18-0.01,0.09,0.03-0.24
		l0.16-1.06c0.41-2.83,0.91-5.65,1.47-8.46c1.14-5.62,2.47-11.22,4.52-16.73L132.2,22.26z"/>
	<path d="M61.97,52.68c4.88-0.61,9.79-0.93,14.72-1.1c2.46-0.06,4.93-0.08,7.4-0.07c2.47,0.06,4.94,0.15,7.41,0.27
		c1.23,0.07,2.47,0.13,3.71,0.16l3.72,0.16c1.24,0.1,2.47,0.2,3.7,0.4c1.22,0.2,2.43,0.47,3.64,0.78c2.4,0.65,4.76,1.46,7.07,2.45
		c2.3,1.01,4.56,2.17,6.69,3.73l-0.17,0.68c-1.31,0.23-2.57,0.29-3.83,0.36c-1.26,0.07-2.5,0.08-3.73,0.06
		c-2.46-0.02-4.88-0.16-7.28-0.4c-2.4-0.22-4.76-0.63-7.1-1.21c-2.34-0.58-4.69-1.18-7.07-1.61c-2.38-0.43-4.76-0.83-7.15-1.19
		c-2.39-0.39-4.79-0.75-7.19-1.07c-4.81-0.68-9.66-1.2-14.53-1.7L61.97,52.68z"/>
	<path d="M5.35,8.46C7.22,8.7,9.02,8.88,10.8,8.89c0.89,0.02,1.76,0.01,2.63-0.03c0.86-0.02,1.72-0.07,2.56-0.16
		c0.42-0.05,0.84-0.13,1.26-0.22l1.24-0.34c0.81-0.23,1.61-0.29,2.44-0.14c0.83,0.13,1.68,0.35,2.59,0.69
		c0.92,0.35,1.88,0.76,3.01,1.51l0.18,0.68c-0.31,0.62-0.69,1.08-1.08,1.55c-0.4,0.41-0.82,0.81-1.26,1.14
		c-0.89,0.64-1.85,1.11-2.84,1.41c-0.5,0.13-1,0.22-1.51,0.25c-0.51,0.01-1.02-0.05-1.52-0.15c-1.01-0.23-2-0.57-2.97-0.78
		c-0.97-0.24-1.93-0.52-2.87-0.83c-0.93-0.36-1.84-0.75-2.73-1.17c-1.76-0.89-3.42-1.92-4.87-3.18L5.35,8.46z"/>
	<path d="M0.13,27.4c2.13-0.16,4.2-0.33,6.23-0.61c1.02-0.13,2.02-0.28,3.02-0.46c1-0.15,1.98-0.33,2.96-0.52
		c0.98-0.19,1.93-0.56,2.88-0.88c0.94-0.33,1.89-0.47,2.89-0.42c0.99,0.04,2.01,0.19,3.08,0.45c1.08,0.28,2.19,0.62,3.46,1.32
		l0.19,0.67c-0.73,1.25-1.63,2.1-2.58,2.84c-0.96,0.71-1.98,1.24-3.04,1.63c-1.06,0.38-2.17,0.51-3.29,0.4
		c-1.12-0.11-2.24-0.33-3.33-0.42c-1.1-0.11-2.19-0.25-3.27-0.42c-1.08-0.21-2.15-0.45-3.21-0.71C4.01,29.7,1.95,29.01,0,28.08
		L0.13,27.4z"/>
	<path d="M13.37,46.81c0.78-1.3,1.77-2.44,2.86-3.53c0.56-0.52,1.14-1.03,1.74-1.51c0.62-0.45,1.26-0.88,1.93-1.3
		c0.67-0.39,1.31-0.91,2-1.35c0.69-0.43,1.46-0.63,2.27-0.59c0.81,0.05,1.63,0.25,2.45,0.64c0.81,0.42,1.61,0.96,2.37,1.93l0.03,0.7
		c-0.64,1.04-1.22,1.7-1.78,2.28c-0.57,0.57-1.11,1-1.66,1.31c-0.55,0.33-1.13,0.45-1.78,0.4c-0.64-0.05-1.33-0.14-1.96-0.06
		c-0.64,0.07-1.28,0.16-1.93,0.28c-0.66,0.09-1.32,0.21-1.98,0.35c-1.35,0.25-2.69,0.62-4.12,1.01L13.37,46.81z"/>
</g>
</svg>
