<?xml version="1.0" encoding="utf-8"?>
<!-- Generator: Adobe Illustrator 23.0.1, SVG Export Plug-In . SVG Version: 6.00 Build 0)  -->
<svg version="1.1" xmlns="http://www.w3.org/2000/svg" xmlns:xlink="http://www.w3.org/1999/xlink" x="0px" y="0px"
	 viewBox="0 0 498.33 73.1" style="enable-background:new 0 0 498.33 73.1;" xml:space="preserve">
<style type="text/css">
	.st6{fill:#1EAEDB;}
</style>
<g id="xlarge">
	<g>
		<path class="st6" d="M58.53,36.52l-11.9,5.22l1.78,19.28l-7-6.3c-1.02,1.23-2.22,2.25-3.59,3.05c-1.38,0.8-2.84,1.44-4.39,1.91
			c-1.55,0.47-3.13,0.8-4.74,1.02c-1.61,0.21-3.18,0.32-4.71,0.32c-3.56,0-6.82-0.59-9.76-1.78c-2.95-1.19-5.47-2.85-7.57-4.99
			c-2.1-2.14-3.73-4.7-4.9-7.67C0.58,43.6,0,40.36,0,36.83c0.04-3.99,0.78-7.44,2.23-10.37c1.44-2.93,3.37-5.36,5.79-7.32
			c2.42-1.95,5.25-3.4,8.49-4.36c3.24-0.95,6.71-1.43,10.4-1.43c1.99,0,4.07,0.31,6.23,0.92c2.16,0.62,4.07,1.43,5.72,2.45
			l8.27-8.02l-2.23,26.97l-2.67-5.03c-0.72-1.36-1.59-2.66-2.61-3.91s-2.15-2.35-3.4-3.31c-1.25-0.95-2.6-1.71-4.04-2.26
			c-1.44-0.55-2.95-0.83-4.52-0.83c-2.54,0-4.75,0.46-6.62,1.37c-1.87,0.91-3.43,2.15-4.68,3.72c-1.25,1.57-2.19,3.38-2.8,5.44
			c-0.62,2.06-0.92,4.25-0.92,6.58c0,2.12,0.31,4.22,0.92,6.3c0.61,2.08,1.52,3.93,2.7,5.57c1.19,1.63,2.67,2.96,4.45,3.98
			c1.78,1.02,3.86,1.53,6.23,1.53c3.05,0,5.47-0.76,7.25-2.29c1.78-1.53,2.67-3.84,2.67-6.93c0-0.55-0.02-1.1-0.06-1.65
			c-0.04-0.55-0.11-1.08-0.19-1.59l-15.59-5.98L58.53,36.52z"/>
		<path class="st6" d="M95.92,59.04l-20.17,0.83l0.45-3.56c-1.36,0.17-2.71,0.27-4.07,0.29c-1.36,0.02-2.71,0.03-4.07,0.03
			c-1.23,0-2.59-0.15-4.07-0.45c-1.48-0.3-2.86-0.77-4.13-1.43c-1.27-0.66-2.33-1.52-3.18-2.58c-0.85-1.06-1.27-2.35-1.27-3.88
			c0-1.7,0.4-3.14,1.21-4.33c0.8-1.19,1.83-2.14,3.09-2.86c1.25-0.72,2.64-1.25,4.17-1.59c1.53-0.34,3.01-0.51,4.45-0.51
			c1.78,0,3.52,0.08,5.22,0.25c1.7,0.17,3.41,0.32,5.15,0.45c0.08-0.55,0.15-1.11,0.19-1.69s0.06-1.16,0.06-1.75
			c0-1.15-0.1-2.27-0.29-3.37c-0.19-1.1-0.53-2.09-1.02-2.96s-1.17-1.56-2.04-2.07c-0.87-0.51-1.98-0.76-3.34-0.76
			c-1.27,0-2.43,0.2-3.47,0.6c-1.04,0.4-1.96,1.09-2.77,2.07c0.59,0.47,1,0.99,1.21,1.56c0.21,0.57,0.32,1.22,0.32,1.94v0.38
			c-0.63,2.97-2.5,4.45-5.6,4.45c-1.4,0-2.54-0.5-3.44-1.5c-0.89-1-1.34-2.17-1.34-3.53c0-1.87,0.53-3.48,1.59-4.83
			c1.06-1.36,2.36-2.48,3.91-3.37c1.55-0.89,3.22-1.55,5.03-1.97c1.8-0.42,3.47-0.64,4.99-0.64c4.88,0,8.68,1.12,11.42,3.37
			c2.73,2.25,4.1,5.92,4.1,11.01c0,0.55-0.01,1.1-0.03,1.65c-0.02,0.55-0.05,1.1-0.1,1.65l-1.53,14.63
			c1.61,0.72,3.18,1.46,4.71,2.23C92.8,57.57,94.35,58.32,95.92,59.04z M77.98,43.96c-1.1-0.13-2.21-0.26-3.31-0.41
			c-1.1-0.15-2.21-0.22-3.31-0.22c-0.72,0-1.43,0.07-2.13,0.22c-0.7,0.15-1.34,0.39-1.91,0.73c-0.57,0.34-1.03,0.79-1.37,1.37
			c-0.34,0.57-0.51,1.28-0.51,2.13c0,0.64,0.15,1.2,0.45,1.69c0.29,0.49,0.69,0.9,1.18,1.24s1.02,0.59,1.59,0.76
			c0.57,0.17,1.13,0.25,1.69,0.25c1.1,0,2.21-0.06,3.34-0.19c1.12-0.13,2.21-0.25,3.28-0.38L77.98,43.96z"/>
		<path class="st6" d="M135.32,27.36c0,1.74-0.53,3.17-1.59,4.29c-1.06,1.12-2.48,1.69-4.26,1.69c-1.31,0-2.33-0.24-3.05-0.73
			c-0.72-0.49-1.32-1.04-1.81-1.65c-0.49-0.61-0.98-1.17-1.46-1.65c-0.49-0.49-1.18-0.73-2.07-0.73c-1.57,0-2.82,0.5-3.75,1.5
			c-0.93,1-1.63,2.17-2.1,3.53c-0.04,0.08-0.07,0.49-0.1,1.21c-0.02,0.72-0.05,1.63-0.1,2.74c-0.04,1.1-0.09,2.31-0.13,3.63
			c-0.04,1.31-0.09,2.57-0.13,3.75c-0.04,1.19-0.09,2.24-0.13,3.15c-0.04,0.91-0.06,1.52-0.06,1.81l15.46,5.6l-36.77,3.75
			c2.21-1.4,4.41-2.79,6.62-4.17c2.21-1.38,4.41-2.75,6.62-4.1l-2.35-22.2l-14.19-3.82l25.64-5.6l-0.13,5.85
			c1.78-1.23,3.62-2.28,5.5-3.15c1.88-0.87,3.97-1.3,6.27-1.3c0.76,0,1.55,0.09,2.35,0.25c0.8,0.17,1.57,0.42,2.29,0.76
			c0.72,0.34,1.36,0.79,1.91,1.37c0.55,0.57,0.95,1.26,1.21,2.07C135.21,25.96,135.32,26.68,135.32,27.36z"/>
		<path class="st6" d="M177.61,27.36c0,1.74-0.53,3.17-1.59,4.29c-1.06,1.12-2.48,1.69-4.26,1.69c-1.31,0-2.33-0.24-3.05-0.73
			c-0.72-0.49-1.33-1.04-1.81-1.65c-0.49-0.61-0.98-1.17-1.46-1.65c-0.49-0.49-1.18-0.73-2.07-0.73c-1.57,0-2.82,0.5-3.75,1.5
			c-0.93,1-1.63,2.17-2.1,3.53c-0.04,0.08-0.07,0.49-0.1,1.21c-0.02,0.72-0.05,1.63-0.09,2.74c-0.04,1.1-0.09,2.31-0.13,3.63
			s-0.08,2.57-0.13,3.75c-0.04,1.19-0.09,2.24-0.13,3.15c-0.04,0.91-0.06,1.52-0.06,1.81l15.46,5.6l-36.77,3.75
			c2.21-1.4,4.41-2.79,6.62-4.17c2.21-1.38,4.41-2.75,6.62-4.1l-2.35-22.2l-14.19-3.82l25.64-5.6l-0.13,5.85
			c1.78-1.23,3.62-2.28,5.5-3.15c1.89-0.87,3.98-1.3,6.27-1.3c0.76,0,1.55,0.09,2.36,0.25c0.8,0.17,1.57,0.42,2.29,0.76
			c0.72,0.34,1.36,0.79,1.91,1.37c0.55,0.57,0.96,1.26,1.21,2.07C177.5,25.96,177.61,26.68,177.61,27.36z"/>
		<path class="st6" d="M211.31,46.82c0,0.3-0.01,0.59-0.03,0.89c-0.02,0.3-0.03,0.59-0.03,0.89l-25.89,0.51
			c0.55,2.5,1.8,4.35,3.75,5.53c1.95,1.19,4.16,1.78,6.62,1.78c1.19,0,2.39-0.08,3.63-0.25c1.23-0.17,2.44-0.45,3.63-0.83
			s2.31-0.88,3.37-1.5c1.06-0.61,2.01-1.35,2.86-2.19c-0.47,1.78-1.25,3.35-2.35,4.71c-1.1,1.36-2.41,2.48-3.91,3.37
			c-1.51,0.89-3.14,1.56-4.9,2c-1.76,0.45-3.51,0.67-5.25,0.67c-2.38,0-4.63-0.42-6.78-1.27c-2.14-0.85-4.01-2.01-5.6-3.5
			c-1.59-1.48-2.85-3.26-3.79-5.34c-0.93-2.08-1.4-4.35-1.4-6.81c0-2.59,0.53-4.94,1.59-7.06c1.06-2.12,2.46-3.93,4.2-5.44
			c1.74-1.5,3.75-2.66,6.04-3.47c2.29-0.8,4.69-1.21,7.19-1.21c2.63,0,4.99,0.49,7.09,1.46c2.1,0.98,3.89,2.31,5.38,4.01
			c1.48,1.7,2.62,3.66,3.4,5.88S211.31,44.28,211.31,46.82z M201.58,43.58c-0.08-1.14-0.32-2.25-0.7-3.31
			c-0.38-1.06-0.91-1.99-1.59-2.8c-0.68-0.8-1.5-1.45-2.45-1.94c-0.96-0.49-2.07-0.73-3.34-0.73c-1.27,0-2.38,0.23-3.31,0.7
			c-0.93,0.47-1.72,1.09-2.35,1.88c-0.64,0.79-1.16,1.7-1.56,2.74c-0.4,1.04-0.71,2.11-0.92,3.21L201.58,43.58z"/>
		<path class="st6" d="M240.4,17.3l-0.57,5.98c-2.08-0.17-4.13-0.33-6.17-0.48c-2.04-0.15-4.09-0.33-6.17-0.54
			c-0.34,4.03-0.7,8.04-1.08,12.02c-0.38,3.99-0.76,8-1.15,12.02c0,0.21-0.02,0.42-0.06,0.64c-0.04,0.21-0.06,0.42-0.06,0.64
			c0,0.59,0.06,1.2,0.19,1.81c0.13,0.62,0.34,1.17,0.64,1.65c0.29,0.49,0.69,0.89,1.18,1.21c0.49,0.32,1.09,0.48,1.81,0.48
			c1.4,0,2.63-0.33,3.69-0.99c1.06-0.66,1.95-1.49,2.67-2.51c0.72-1.02,1.29-2.15,1.72-3.4s0.7-2.49,0.83-3.72
			c0.51,1.99,0.76,3.97,0.76,5.92c0,1.87-0.3,3.55-0.89,5.06c-0.59,1.51-1.42,2.8-2.48,3.88c-1.06,1.08-2.33,1.92-3.82,2.51
			c-1.49,0.59-3.12,0.89-4.9,0.89c-1.87,0-3.5-0.32-4.9-0.95c-1.4-0.64-2.56-1.52-3.47-2.64c-0.91-1.12-1.59-2.45-2.04-3.98
			c-0.45-1.53-0.67-3.16-0.67-4.9c0-0.34,0-0.66,0-0.95c0-0.3,0.02-0.61,0.06-0.95c0.34-4.11,0.67-8.17,0.99-12.18
			c0.32-4.01,0.6-8.07,0.86-12.18c-1.14-0.08-2.28-0.18-3.4-0.29c-1.13-0.11-2.26-0.22-3.4-0.35l0.25-5.03
			c0.89-0.04,1.82-0.19,2.8-0.45c0.98-0.25,1.92-0.59,2.83-1.02c0.91-0.42,1.76-0.93,2.54-1.53c0.78-0.59,1.43-1.27,1.94-2.04
			c0.47-0.76,0.9-1.59,1.3-2.48c0.4-0.89,0.76-1.82,1.08-2.8c0.32-0.97,0.58-1.94,0.79-2.89c0.21-0.95,0.36-1.88,0.45-2.77
			l5.22,0.13l-1.65,15.9L240.4,17.3z"/>
		<path class="st6" d="M269.11,17.3l-0.57,5.98c-2.08-0.17-4.13-0.33-6.17-0.48c-2.04-0.15-4.09-0.33-6.17-0.54
			c-0.34,4.03-0.7,8.04-1.08,12.02c-0.38,3.99-0.76,8-1.15,12.02c0,0.21-0.02,0.42-0.06,0.64c-0.04,0.21-0.06,0.42-0.06,0.64
			c0,0.59,0.06,1.2,0.19,1.81c0.13,0.62,0.34,1.17,0.64,1.65c0.29,0.49,0.69,0.89,1.18,1.21c0.49,0.32,1.09,0.48,1.81,0.48
			c1.4,0,2.63-0.33,3.69-0.99c1.06-0.66,1.95-1.49,2.67-2.51c0.72-1.02,1.29-2.15,1.72-3.4s0.7-2.49,0.83-3.72
			c0.51,1.99,0.76,3.97,0.76,5.92c0,1.87-0.3,3.55-0.89,5.06c-0.59,1.51-1.42,2.8-2.48,3.88c-1.06,1.08-2.33,1.92-3.82,2.51
			c-1.49,0.59-3.12,0.89-4.9,0.89c-1.87,0-3.5-0.32-4.9-0.95c-1.4-0.64-2.56-1.52-3.47-2.64c-0.91-1.12-1.59-2.45-2.04-3.98
			c-0.45-1.53-0.67-3.16-0.67-4.9c0-0.34,0-0.66,0-0.95c0-0.3,0.02-0.61,0.06-0.95c0.34-4.11,0.67-8.17,0.99-12.18
			c0.32-4.01,0.6-8.07,0.86-12.18c-1.14-0.08-2.28-0.18-3.4-0.29c-1.13-0.11-2.26-0.22-3.4-0.35l0.25-5.03
			c0.89-0.04,1.82-0.19,2.8-0.45c0.98-0.25,1.92-0.59,2.83-1.02c0.91-0.42,1.76-0.93,2.54-1.53c0.78-0.59,1.43-1.27,1.94-2.04
			c0.47-0.76,0.9-1.59,1.3-2.48c0.4-0.89,0.76-1.82,1.08-2.8c0.32-0.97,0.58-1.94,0.79-2.89c0.21-0.95,0.36-1.88,0.45-2.77
			l5.22,0.13l-1.65,15.9L269.11,17.3z"/>
		<path class="st6" d="M352.71,64.64l-33.97,8.46l8.78-9.16c-1.1-2.59-2.22-5.18-3.34-7.76c-1.13-2.59-2.28-5.17-3.47-7.76
			c-3.05,0.21-6.1,0.33-9.13,0.35c-3.03,0.02-6.07,0.14-9.13,0.35c-0.59,1.1-1.18,2.19-1.75,3.28c-0.57,1.08-1.16,2.17-1.75,3.28
			l11.58,7.57l-32.64-2.16l15.65-6.62l16.22-30.98l-17.11-8.72l24.43,1.02l22.01,44.85L352.71,64.64z M318.42,42.88
			c-0.98-2.12-1.97-4.22-2.99-6.3c-1.02-2.08-2.02-4.18-2.99-6.3c-1.1,2.04-2.2,4.04-3.28,6.01c-1.08,1.97-2.17,3.98-3.28,6.01
			L318.42,42.88z"/>
		<path class="st6" d="M407.61,51.66l-26.15-1.15l8.53-4.13c0.08-1.31,0.16-2.62,0.22-3.91c0.06-1.29,0.1-2.6,0.1-3.91
			c0-1.1-0.09-2.09-0.25-2.96c-0.17-0.87-0.47-1.61-0.89-2.23c-0.42-0.61-1.03-1.09-1.81-1.43c-0.79-0.34-1.77-0.51-2.96-0.51
			c-1.02,0-1.93,0.23-2.74,0.7c-0.81,0.47-1.49,1.07-2.07,1.81c-0.57,0.74-1.02,1.57-1.34,2.48s-0.52,1.83-0.6,2.77
			c-0.21,1.78-0.4,3.58-0.57,5.41c-0.17,1.82-0.34,3.63-0.51,5.41l8.46,4.2l-27.61,0.19l11.9-4.58V38.36c0-1.1-0.19-2.17-0.57-3.21
			c-0.38-1.04-0.93-1.94-1.65-2.7c-0.64-0.59-1.35-0.99-2.13-1.18c-0.79-0.19-1.6-0.29-2.45-0.29c-1.15,0-2.37,0.19-3.66,0.57
			c-1.29,0.38-2.26,1.1-2.89,2.16l-1.4,12.34l8.4,4.64l-26.15,0.13l10.69-4.39l-1.91-15.33c-1.23-0.34-2.65-0.73-4.26-1.18
			s-3.16-0.9-4.64-1.37c-1.7-0.51-3.46-1.04-5.28-1.59l25.26-4.2l-0.32,3.88c1.65-1.06,3.36-1.78,5.12-2.16s3.53-0.57,5.31-0.57
			c1.82,0,3.46,0.37,4.9,1.11s2.8,1.73,4.07,2.96c1.87-0.98,3.86-1.84,5.98-2.61c2.12-0.76,4.26-1.15,6.42-1.15
			c1.87,0,3.49,0.3,4.87,0.89c1.38,0.59,2.51,1.43,3.4,2.51c0.89,1.08,1.56,2.35,2,3.82c0.45,1.46,0.67,3.09,0.67,4.87
			c0,0.81-0.05,1.77-0.16,2.89c-0.11,1.12-0.22,2.24-0.35,3.34c-0.17,1.27-0.32,2.59-0.45,3.94L407.61,51.66z"/>
		<path class="st6" d="M429.9,58.53l-28.5-0.51l10.56-6.55l-0.89-21.12l-12.15-5.73h23.35l-2.1,27.29L429.9,58.53z M422.46,13.42
			c0,0.93-0.18,1.81-0.54,2.64c-0.36,0.83-0.85,1.55-1.46,2.16c-0.62,0.62-1.34,1.1-2.16,1.46c-0.83,0.36-1.71,0.54-2.64,0.54
			c-0.93,0-1.8-0.18-2.61-0.54c-0.81-0.36-1.52-0.85-2.13-1.46c-0.62-0.61-1.1-1.34-1.46-2.16c-0.36-0.83-0.54-1.71-0.54-2.64
			c0-0.93,0.18-1.8,0.54-2.61c0.36-0.81,0.85-1.52,1.46-2.13c0.62-0.61,1.33-1.1,2.13-1.46c0.8-0.36,1.67-0.54,2.61-0.54
			c0.93,0,1.81,0.18,2.64,0.54c0.83,0.36,1.55,0.85,2.16,1.46c0.62,0.62,1.1,1.33,1.46,2.13C422.28,11.62,422.46,12.49,422.46,13.42
			z"/>
		<path class="st6" d="M474.81,54.2l-27.61,0.19l11.9-4.58V38.36c0-2.25-0.56-4.04-1.69-5.38s-2.83-2-5.12-2
			c-1.14,0-2.37,0.19-3.66,0.57s-2.26,1.1-2.89,2.16l-1.4,12.34c0.42,0.34,1.09,0.76,2,1.27c0.91,0.51,1.85,1.02,2.83,1.53
			c1.1,0.59,2.29,1.21,3.56,1.85l-26.15,0.13l10.69-4.39l-1.91-15.33c-1.23-0.34-2.65-0.73-4.26-1.18c-1.61-0.45-3.16-0.9-4.64-1.37
			c-1.7-0.51-3.46-1.04-5.28-1.59l25.26-4.2l-0.32,3.88c1.48-0.59,3.07-1.19,4.77-1.78c1.7-0.59,3.35-0.89,4.96-0.89
			c3.86,0,6.85,1.04,8.97,3.12c2.12,2.08,3.18,5.07,3.18,8.97c0,0.98-0.05,2.07-0.16,3.28s-0.24,2.43-0.41,3.66
			c-0.17,1.23-0.35,2.45-0.54,3.66c-0.19,1.21-0.37,2.32-0.54,3.34L474.81,54.2z"/>
		<path class="st6" d="M498.33,58.53l-28.5-0.51l10.56-6.55l-0.89-21.12l-12.15-5.73h23.35l-2.1,27.29L498.33,58.53z M490.88,13.42
			c0,0.93-0.18,1.81-0.54,2.64c-0.36,0.83-0.85,1.55-1.46,2.16c-0.62,0.62-1.34,1.1-2.16,1.46c-0.83,0.36-1.71,0.54-2.64,0.54
			c-0.93,0-1.8-0.18-2.61-0.54c-0.81-0.36-1.52-0.85-2.13-1.46c-0.62-0.61-1.1-1.34-1.46-2.16c-0.36-0.83-0.54-1.71-0.54-2.64
			c0-0.93,0.18-1.8,0.54-2.61c0.36-0.81,0.85-1.52,1.46-2.13c0.61-0.61,1.32-1.1,2.13-1.46c0.8-0.36,1.68-0.54,2.61-0.54
			c0.93,0,1.81,0.18,2.64,0.54c0.83,0.36,1.55,0.85,2.16,1.46c0.61,0.62,1.1,1.33,1.46,2.13C490.7,11.62,490.88,12.49,490.88,13.42z
			"/>
	</g>
</g>
</svg>
