<?xml version="1.0" encoding="utf-8"?>
<!-- Generator: Adobe Illustrator 23.0.1, SVG Export Plug-In . SVG Version: 6.00 Build 0)  -->
<svg version="1.1" id="Layer_1" xmlns="http://www.w3.org/2000/svg" xmlns:xlink="http://www.w3.org/1999/xlink" x="0px" y="0px"
	 viewBox="0 0 275 315.97" style="enable-background:new 0 0 275 315.97;" xml:space="preserve">
<style type="text/css">
	.st0{fill:#FFFFFF;}
</style>
<g>
	<g>
		<path class="st0" d="M262.72,211.6c-5.88-8.23-19.12-13.93-34.44-20.53c-6.53-2.81-13.27-5.71-18.37-8.48
			c-17.41-9.43-21.08-18.49-23.52-24.49c-1.05-2.59-2.44-6.01-5.13-8.51c-0.03-0.76-0.04-1.55-0.02-2.37
			c0.04-2.27,0.29-4.79,0.81-8.21c0.43-2.84,1-5.71,1.6-8.75c0.02-0.11,0.05-0.23,0.07-0.34c0.87-0.33,1.71-0.74,2.51-1.22
			c1.52-0.91,2.9-2.06,4.23-3.54c0.8-0.89,1.41-1.73,1.86-2.34l0.12-0.16c0.47-0.64,0.96-1.32,1.48-2.06
			c0.91-1.32,1.87-2.73,2.79-4.28c2.06-3.43,3.61-7.24,4.51-11.03c0.61-2.45,1-4.77,1.38-7c0.12-0.72,0.24-1.43,0.37-2.14l0.03-0.17
			c0.27-1.64,0.55-3.62,0.59-5.82c0.03-1.34-0.05-2.67-0.24-3.93c-0.23-1.61-0.69-3.25-1.32-4.73c-1.12-2.65-2.68-4.99-4.65-6.98
			c-0.43-0.43-0.88-0.84-1.35-1.22c0.09-1.09,0.21-2,0.35-2.65l0.34-1.51c1.6-7.11,2.92-13.31,2.92-17.25
			c0-4.68-0.66-11.39-3.76-16.91c-0.24-0.62-0.6-2.27-0.84-3.37c-0.89-4.15-2-9.32-6.21-12.68c-2.11-1.69-4.63-3.07-7.06-4.41
			c-1.36-0.74-2.76-1.51-3.66-2.11c-0.36-0.26-1.35-1.19-2-1.8c-3.56-3.36-8.44-7.95-15.17-7.95c-2.27,0-5.59-0.53-8.26-0.96
			c-1.03-0.16-2-0.32-2.88-0.45c-0.43-0.06-0.89-0.13-1.38-0.2C145.5,0.6,141.5,0,137.49,0c-1.33,0-2.61,0.07-3.79,0.2
			c-3.61,0.4-7.91,1.9-12.07,3.34c-1.7,0.59-4.23,1.47-5.24,1.7c-0.49-0.01-1.4-0.12-2.28-0.22c-1.81-0.21-4.06-0.47-6.7-0.47
			c-2.72,0-5.31,0.27-7.9,0.84c-7.77,1.69-12.35,8.57-16.03,14.1c-1.04,1.57-2.34,3.52-3.01,4.19c-2.39,2.39-5.32,6.79-6.72,19.65
			c-0.57,5.23-0.89,12.33-0.4,15.72c0.09,0.79,0.11,3.54,0.12,5.56c0.04,6.45,0.15,11.85,0.94,16.06l0,3.88
			c0,3.09-0.26,6.03-0.77,8.7c-0.29,1.48-0.63,2.91-1.02,4.2l-1.56,5.18c-1.51,5.13-2.07,9.78-1.71,14.2
			c0.34,4.73,1.78,9.5,4.29,14.17c1.27,2.39,2.65,4.48,3.98,6.51c0.71,1.07,1.38,2.08,1.98,3.07l0.07,0.12l0.08,0.12
			c0.73,1.13,1.36,2.71,2.09,4.54c0.49,1.23,1,2.5,1.62,3.84c2.23,4.99,4.93,8.93,8.23,12.02c0.27,0.26,0.57,0.51,0.85,0.76
			c0.01,0.5,0.02,1.01,0.03,1.51c0.05,2.26,0.09,4.39,0.08,6.55c0,1.96-0.03,3.92-0.09,5.84c-0.25,0.19-0.5,0.39-0.78,0.61
			c-1.42,0.31-2.67,0.75-3.84,1.2l-0.31,0.12l-1.92,0.89c-0.61,0.29-1.12,0.58-1.53,0.8l-0.54,0.3c-3.04,1.73-5.77,4.07-7.87,6.74
			c-0.16,0.21-0.32,0.41-0.47,0.61c-1.56,0.28-3.35,0.42-5.52,0.42c-1.43,0-2.91-0.06-4.33-0.11c-1.19-0.04-2.41-0.09-3.62-0.11
			c-0.4-0.35-0.8-0.71-1.22-1.09l-5.46-5.05c-1.86-1.74-3.68-3.51-5.2-5l-5.31-5.23c-0.35-0.35-0.7-0.7-1.05-1.05
			c-1.32-1.32-2.57-2.56-3.59-3.75c-0.17-0.2-0.33-0.41-0.5-0.62c-0.14-0.18-0.47-0.6-0.47-0.6c-0.72-0.89-1.43-1.64-1.89-2.11
			c-1.07-1.11-2.28-2.21-3.7-3.37c-2.21-1.81-4.49-3.46-6.48-4.9l-0.19-0.14c-0.35-0.25-0.69-0.5-1.03-0.77
			c-1.38-1.08-2.88-1.92-4.46-2.51c-1.74-0.66-3.58-0.99-5.47-0.99c-2.2,0-4.41,0.48-6.38,1.37c-3.38,1.52-6.14,4.17-7.8,7.45
			c-2.11,4.13-2.19,9.01-0.22,13.08c0.42,0.86,0.84,1.51,1.07,1.86l0.02,0.03c0.3,0.47,0.57,0.85,0.75,1.1l0.13,0.18
			c0.45,0.62,0.92,1.23,1.52,1.96c0.82,1.01,1.71,2.03,2.88,3.31c1.56,1.71,3.26,3.47,5.52,5.75l2.66,2.66
			c0.17,0.17,0.33,0.33,0.5,0.49c-0.76,1.96-1.21,3.84-1.37,5.7c-0.04,0.48-0.07,0.96-0.07,1.44c-0.12,0.14-0.23,0.27-0.35,0.41
			c-1.29,1.6-2.23,3.54-2.7,5.59c-0.38,1.66-0.41,3.1-0.39,4.03l0.04,1.7c0.02,0.45,0.04,0.88,0.07,1.3
			c-1.07,1.55-1.88,3.28-2.42,5.17c-0.94,3.35-0.83,6.49-0.6,9.12l0.07,0.67c0.18,1.79,0.39,3.82,0.87,6.02
			c0.56,2.6,1.57,5.2,3.09,7.94c1.15,2.07,2.42,3.92,3.44,5.42c1.16,1.69,2.25,3.23,3.35,4.74c1.69,2.29,3.44,4.53,5.24,6.69
			c-2.88,11.09-4.93,19.43-4.95,19.53l-1.42,5.79l4.4,4.02c0.55,0.5,12.86,11.57,37.92,20.36l-2.6,1.37l6.03,1.18
			c1.31,1.82,2.53,3.41,3.72,4.87l4.98-3.18l13.29,2.6c11.62,2.27,23.89,3.59,36.57,3.95l-0.01,0.14l10.02-0.05
			c0.19,0,10.08-0.04,10.08-0.04l0-0.06c9.06-0.14,18.43-0.43,28.01-0.86l0.01,0.04l9.1-0.49c0.19-0.01,11.16-0.6,11.16-0.6
			l-0.01-0.06c42-2.69,73.67-7.08,74.01-7.13l8.23-1.15l0.41-8.3c0.05-1.07,1.31-26.37,1.31-35.62
			C275,252.61,271.23,223.5,262.72,211.6z"/>
	</g>
	<g>
		<path d="M82.52,126.27c1.68,3.17,3.82,6.04,5.67,9.07c1.94,2.99,2.93,6.44,4.43,9.69c1.45,3.26,3.34,6.4,5.97,8.87
			c2.62,2.48,5.92,4.17,9.37,5.12c3.43,0.99,6.99,1.64,10.58,1.66c1.79,0.01,3.59-0.11,5.35-0.41c1.77-0.3,3.51-0.75,5.2-1.33
			c3.41-1.14,6.52-2.94,9.73-4.46c3.2-1.55,6.43-3.07,9.76-4.32c0.83-0.32,1.67-0.58,2.52-0.9c0.84-0.33,1.65-0.71,2.44-1.14
			c1.58-0.85,3.08-1.81,4.54-2.86c1.45-1.04,2.85-2.16,4.17-3.36c1.32-1.21,2.59-2.47,3.67-3.91c0.53-0.75,0.88-1.59,1.17-2.43
			c0.28-0.85,0.5-1.72,0.68-2.6c0.36-1.75,0.58-3.53,0.74-5.3c0.31-3.56,0.4-7.13,0.32-10.69l-0.2,0.01
			c-0.04,1.78-0.13,3.56-0.26,5.33c-0.13,1.77-0.27,3.54-0.49,5.3c-0.22,1.75-0.5,3.5-0.91,5.2c-0.2,0.85-0.45,1.68-0.74,2.47
			c-0.3,0.79-0.66,1.55-1.12,2.14c-0.23,0.3-0.55,0.64-0.82,0.95c-0.3,0.31-0.59,0.62-0.9,0.93c-0.61,0.61-1.25,1.2-1.91,1.77
			c-1.32,1.13-2.71,2.19-4.15,3.17c-1.44,0.98-2.93,1.88-4.45,2.65c-0.76,0.39-1.53,0.74-2.3,1.02l-0.57,0.2l-0.65,0.21
			c-0.43,0.14-0.86,0.29-1.29,0.44c-3.44,1.22-6.73,2.69-9.98,4.2l-4.83,2.32c-1.55,0.76-3.13,1.41-4.75,1.94
			c-1.61,0.53-3.25,0.93-4.91,1.2c-1.66,0.26-3.35,0.35-5.03,0.34c-3.37-0.03-6.75-0.66-10.05-1.63c-3.25-0.9-6.17-2.46-8.55-4.68
			c-2.39-2.22-4.15-5.09-5.56-8.22c-0.72-1.57-1.36-3.2-2.05-4.87c-0.33-0.81-0.72-1.72-1.15-2.57c-0.44-0.84-0.91-1.65-1.4-2.43
			c-1.96-3.12-4.09-5.92-5.73-8.92c-1.64-2.99-2.79-6.16-3.09-9.5c-0.17-1.66-0.12-3.35,0.05-5.04c0.19-1.69,0.53-3.37,0.94-5.07
			c0.42-1.7,0.91-3.42,1.34-5.17c0.44-1.75,0.76-3.54,1.01-5.33c0.48-3.54,0.6-7.1,0.34-10.62c0.25-0.82,0.57-1.63,0.94-2.39
			c0.43-0.87,0.94-1.69,1.56-2.34c0.62-0.65,1.37-1.06,2.06-1.05c0.95,0.03,1.88,0.14,2.79,0.32c0.91,0.18,1.79,0.44,2.69,0.74
			c0.91,0.3,1.85,0.64,2.93,0.93c1.07,0.29,2.33,0.51,3.67,0.47c1.34-0.03,2.68-0.31,3.91-0.73l-3.15-6.29
			c-1.08,0.92-2.12,1.47-3.91,1.62c-1.75,0.15-4,0.03-6.12,0.38c-1.06,0.16-2.1,0.41-3.1,0.74c-0.62,0.14-1.2,0.45-1.65,0.83
			c-0.46,0.38-0.81,0.82-1.1,1.28c-0.57,0.92-0.91,1.9-1.17,2.87c-0.21,0.81-0.35,1.63-0.43,2.45h-0.15c0,3.56-0.29,7.12-0.95,10.61
			c-0.34,1.74-0.75,3.48-1.26,5.18l-1.54,5.12c-1.01,3.42-1.63,7.01-1.33,10.6C79.63,119.65,80.83,123.12,82.52,126.27z"/>
		<path d="M129.87,72.09c-1.71,0.17-3.4,0.48-5.07,0.9c-0.83,0.22-1.66,0.45-2.49,0.73c-0.41,0.13-0.82,0.28-1.24,0.44l-0.63,0.25
			l-0.32,0.14c-0.12,0.05-0.21,0.09-0.37,0.17l3.49,6.11c0.01-0.01,0.09-0.07,0.15-0.11l0.2-0.13c0.13-0.09,0.28-0.18,0.43-0.27
			c0.29-0.18,0.6-0.36,0.9-0.53c0.61-0.35,1.26-0.67,1.9-0.97c1.3-0.61,2.65-1.12,4.02-1.53c1.38-0.4,2.78-0.7,4.21-0.86
			c1.45-0.15,2.77-0.13,4.24,0.06c2.91,0.44,5.9,1.35,8.8,2.46c2.91,1.12,5.78,2.4,8.57,3.87c-2.48-1.96-5.08-3.77-7.8-5.45
			c-2.72-1.67-5.57-3.18-8.75-4.3c-1.59-0.53-3.4-0.9-5.09-1.04C133.31,71.88,131.58,71.92,129.87,72.09z"/>
		<path d="M145.61,90.33c0.5-0.5-0.5-7.03-10.05-7.03s-10.8,7.29-10.55,7.54c0.25,0.25,4.77-3.27,7.79-3.27c0,0-1.76,5.28,3.27,5.28
			s3.52-5.53,3.52-5.53C141.59,87.31,145.11,90.83,145.61,90.33z"/>
		<path d="M99.64,83.55c-7.03,0-10.05,5.53-9.55,6.03c0.5,0.5,5.02-2.51,6.03-2.51c0,0-1,4.52,3.01,4.52s3.01-4.52,3.01-4.52
			c1.51,0,4.02,3.01,4.52,3.01C107.18,90.08,105.67,83.55,99.64,83.55z"/>
		<path d="M130.39,98.25c0.93,0.3,1.9,0.48,2.88,0.54c0.98,0.05,1.96-0.01,2.92-0.3c-0.93-0.34-1.83-0.6-2.72-0.87l-2.62-0.81
			c-0.87-0.28-1.73-0.56-2.61-0.86c-0.88-0.29-1.76-0.6-2.72-0.87c0.62,0.78,1.38,1.41,2.21,1.93
			C128.56,97.54,129.46,97.95,130.39,98.25z"/>
		<path d="M101.47,96.48c0.38-0.12,0.76-0.28,1.12-0.49c0.36-0.21,0.72-0.46,1.07-0.85c-0.47-0.23-0.92-0.29-1.37-0.3
			c-0.44,0-0.87,0.07-1.28,0.2c-0.41,0.13-0.8,0.32-1.16,0.58c-0.36,0.26-0.69,0.57-0.95,1.03c0.51,0.12,0.95,0.11,1.37,0.07
			C100.69,96.69,101.09,96.61,101.47,96.48z"/>
		<path d="M107.45,77.73c0.13,0.47,0.3,0.93,0.5,1.39c0.1,0.23,0.21,0.46,0.34,0.69c0.13,0.23,0.26,0.45,0.38,0.72
			c0.22-0.23,0.28-0.53,0.36-0.81c0.06-0.28,0.09-0.55,0.09-0.82c0.01-0.54-0.07-1.07-0.22-1.58c-0.15-0.51-0.36-1.01-0.67-1.47
			c-0.31-0.44-0.72-0.92-1.3-1.1c0.1,0.58,0.13,1.05,0.21,1.54C107.22,76.78,107.32,77.26,107.45,77.73z"/>
		<path d="M103.7,101.62c-0.76,1.39-1.45,2.93-1.69,4.58c-0.24,1.63-0.16,3.38,0.57,4.93c0.36,0.77,0.86,1.48,1.5,2.04
			c0.64,0.55,1.36,0.99,2.15,1.25c1.59,0.5,3.26,0.35,4.73-0.19c-1.54,0.22-3.13,0.13-4.46-0.5c-1.32-0.62-2.35-1.75-2.84-3.06
			c-0.49-1.33-0.54-2.81-0.25-4.23c0.26-1.43,0.86-2.77,1.61-4.1c0.72-1.34,1.57-2.65,2.3-4.08c0.74-1.44,1.24-3.01,1.54-4.57
			c0.31-1.56,0.46-3.14,0.5-4.72c0.01-1.58-0.08-3.16-0.42-4.69c0.01,1.56-0.1,3.11-0.32,4.63c-0.2,1.53-0.51,3.03-0.9,4.5
			c-0.21,0.73-0.44,1.45-0.7,2.15c-0.26,0.7-0.59,1.36-0.95,2.02C105.34,98.93,104.49,100.23,103.7,101.62z"/>
		<path d="M123.51,115.45c0.99-0.57,1.85-1.41,2.43-2.48c0.58-1.06,0.79-2.41,0.49-3.64c-0.15-0.61-0.33-1.13-0.6-1.69
			c-0.26-0.54-0.61-1.07-1.06-1.51c-0.44-0.44-0.99-0.78-1.55-0.98c-0.57-0.19-1.15-0.28-1.72-0.26c1,0.56,1.86,1.18,2.37,2
			c0.27,0.4,0.47,0.84,0.65,1.31c0.08,0.24,0.17,0.48,0.24,0.72c0.07,0.25,0.15,0.5,0.2,0.73c0.21,0.93,0.17,1.88-0.12,2.85
			C124.56,113.49,124.05,114.44,123.51,115.45z"/>
		<path d="M117.52,113.47c-0.5-0.01-1,0.07-1.48,0.23c-0.47,0.17-0.93,0.42-1.3,0.84c0.53,0.19,0.99,0.27,1.44,0.33
			c0.45,0.06,0.88,0.09,1.31,0.1c0.43,0.01,0.86,0,1.31-0.05c0.45-0.05,0.92-0.11,1.45-0.28c-0.36-0.44-0.8-0.7-1.27-0.9
			C118.52,113.57,118.02,113.48,117.52,113.47z"/>
		<path d="M94.55,114.74c-0.98,0.6-1.91,1.3-2.75,2.11c-0.84,0.8-1.6,1.72-2.21,2.74c-0.6,1.02-1.06,2.14-1.17,3.34
			c0.87-0.83,1.64-1.61,2.42-2.37l2.35-2.26c0.79-0.75,1.58-1.52,2.35-2.33c0.77-0.82,1.53-1.67,2.18-2.68
			C96.57,113.64,95.54,114.15,94.55,114.74z"/>
		<path d="M138.59,121.85c0.67,0.49,1.35,0.97,2.03,1.43c0.68,0.46,1.33,0.89,1.92,1.37c0.59,0.48,1.11,1.01,1.52,1.65
			c0.42,0.64,0.7,1.38,0.75,2.23c0.39-0.77,0.39-1.74,0.16-2.62c-0.23-0.89-0.74-1.7-1.31-2.38c-0.58-0.69-1.25-1.26-1.9-1.79
			c-0.65-0.52-1.31-1.02-1.97-1.51c-1.32-0.98-2.66-1.91-3.99-2.85l-4.05-2.87c0.77,1.52,1.85,2.86,3.03,4.07
			C135.96,119.79,137.26,120.86,138.59,121.85z"/>
		<path d="M104.14,126.46c-3.21-0.88-6.36-1.98-9.52-3.23c2.76,1.98,5.84,3.53,9.04,4.71c3.21,1.19,6.56,2.02,9.96,2.46
			c3.4,0.45,6.85,0.51,10.26,0.19c3.4-0.32,6.77-1.03,9.95-2.23c-3.37,0.39-6.7,0.64-10.03,0.67c-3.33,0.02-6.64-0.19-9.92-0.61
			C110.6,127.99,107.35,127.34,104.14,126.46z"/>
		<path d="M125,135.52c-2.57,0.48-5.09,0.83-7.62,0.91c-2.52,0.09-5.03-0.03-7.47-0.47c-2.43-0.44-4.8-1.2-6.96-2.4
			c-2.17-1.19-4.12-2.81-5.73-4.87c0.88,2.48,2.7,4.63,4.89,6.2c2.2,1.58,4.8,2.57,7.45,3.05c2.65,0.48,5.35,0.46,7.98,0.06
			C120.16,137.59,122.71,136.8,125,135.52z"/>
		<path d="M114.06,143.27c-0.29-0.05-0.58-0.12-0.87-0.21l-0.45-0.14c-0.17-0.05-0.33-0.09-0.5-0.14c-0.33-0.08-0.67-0.15-1.01-0.22
			c-0.67-0.12-1.36-0.2-2.06-0.22c-0.71-0.02-1.43,0-2.23,0.19c0.55,0.61,1.18,1.02,1.85,1.34c0.67,0.32,1.37,0.54,2.08,0.67
			c0.36,0.06,0.72,0.11,1.09,0.12c0.18,0.01,0.37,0.02,0.55,0.01c0.19,0,0.4-0.01,0.6-0.04c0.41-0.06,0.84-0.17,1.23-0.42
			c0.39-0.24,0.71-0.68,0.67-1.11C114.65,143.32,114.35,143.31,114.06,143.27z"/>
		<path d="M152.8,135.61c1.3-1.95,2.42-4,3.29-6.21c0.85-2.2,1.44-4.59,1.44-7.03c0.01-2.43-0.47-4.86-1.42-7.07
			c-0.96-2.2-2.35-4.21-4.16-5.72c1.16,2.04,2.07,4.11,2.68,6.25c0.61,2.14,0.91,4.33,0.9,6.52c0,2.18-0.4,4.37-0.93,6.57
			C154.05,131.13,153.33,133.32,152.8,135.61z"/>
		<path d="M186.1,93.84c-0.08,0.93-0.14,1.87-0.19,2.82c-0.05,0.96-0.09,1.93-0.02,2.99c0.72-0.78,1.21-1.7,1.57-2.66
			c0.35-0.96,0.57-1.97,0.65-2.99c0.08-1.02,0.03-2.05-0.17-3.05c-0.21-1-0.54-1.99-1.12-2.88c-0.23,1.04-0.34,2-0.45,2.95
			C186.26,91.98,186.17,92.91,186.1,93.84z"/>
		<path d="M183.23,86.66c-1.35,0.71-2.56,1.7-3.54,2.9c-1.98,2.39-3.02,5.33-3.79,8.15c-0.19,0.72-0.37,1.41-0.54,2.15
			c-0.16,0.74-0.3,1.52-0.31,2.34c0,0.83,0.1,1.67,0.48,2.52c0.2,0.42,0.48,0.85,0.93,1.19c0.46,0.34,1.07,0.48,1.61,0.41
			c0.54-0.08,0.97-0.31,1.31-0.54c0.35-0.24,0.64-0.49,0.91-0.73c0.27-0.25,0.52-0.47,0.78-0.66c0.26-0.2,0.55-0.35,0.85-0.5
			c1.2-0.58,2.67-0.73,4.08-0.36c-1.25-0.79-2.9-0.98-4.42-0.57c-1.56,0.37-2.82,1.83-3.67,1.8c-0.18-0.01-0.32-0.07-0.43-0.18
			c-0.12-0.11-0.25-0.31-0.34-0.56c-0.17-0.5-0.24-1.13-0.2-1.75c0.04-0.63,0.17-1.29,0.34-1.96c0.17-0.67,0.36-1.38,0.55-2.07
			c0.74-2.76,1.6-5.44,3.1-7.74c0.76-1.13,1.7-2.17,2.81-3c1.1-0.85,2.39-1.47,3.83-1.76C186.11,85.58,184.58,85.97,183.23,86.66z"
			/>
		<path d="M177.91,110.22c-0.18,0.33-0.29,0.69-0.33,1.09c-0.04,0.4-0.02,0.84,0.18,1.36c0.54-0.14,0.91-0.37,1.22-0.63
			c0.3-0.26,0.54-0.56,0.71-0.9c0.17-0.33,0.29-0.7,0.33-1.1c0.04-0.4,0.02-0.84-0.18-1.36c-0.54,0.14-0.91,0.37-1.22,0.63
			C178.32,109.59,178.09,109.89,177.91,110.22z"/>
		<path d="M138.86,65.49l3.03,0.69c1.03,0.24,2.06,0.49,3.2,0.68c-0.72-0.91-1.64-1.6-2.62-2.16c-0.99-0.55-2.07-0.94-3.18-1.18
			c-1.11-0.24-2.25-0.33-3.38-0.24c-1.13,0.09-2.25,0.34-3.28,0.87c1.12,0.3,2.16,0.49,3.2,0.71
			C136.84,65.06,137.85,65.27,138.86,65.49z"/>
		<path d="M254.55,217.44c-6.5-9.1-33.53-17.41-49.42-26.01c-30.31-16.42-26.28-34.06-31.98-35.07c-0.45-0.16-0.88-0.28-1.34-0.36
			c-0.15-1.45-0.36-2.83-0.47-4.2c-0.13-1.58-0.17-3.16-0.14-4.75c0.06-3.18,0.44-6.36,0.92-9.53c0.87-5.79,2.26-11.54,3.21-17.44
			c0.16,0.08,0.32,0.15,0.49,0.22c0.76,0.31,1.62,0.55,2.57,0.55c0.95,0,1.91-0.31,2.67-0.77c0.77-0.46,1.38-1.04,1.92-1.64
			c0.54-0.6,0.98-1.22,1.4-1.79c0.43-0.58,0.86-1.17,1.28-1.77c0.83-1.2,1.66-2.41,2.41-3.69c1.53-2.54,2.71-5.38,3.38-8.25
			c0.71-2.86,1.12-5.74,1.63-8.57c0.23-1.44,0.43-2.91,0.46-4.41c0.02-0.75-0.02-1.51-0.13-2.28c-0.11-0.76-0.33-1.55-0.63-2.25
			c-0.6-1.41-1.42-2.71-2.51-3.8c-0.54-0.55-1.17-1.04-1.89-1.4c-0.36-0.18-0.75-0.33-1.15-0.42c-0.4-0.09-0.86-0.12-1.23-0.08
			c-0.07,0-0.13,0.01-0.2,0.02c-0.03-2.26-0.01-7.76,0.77-11.28c1-4.52,3.01-13.06,3.01-16.58c0-3.52-0.5-8.54-2.51-12.06
			c-2.01-3.52-2.01-11.05-4.52-13.06c-2.51-2.01-7.03-4.02-10.05-6.03c-3.01-2.01-7.54-8.04-11.56-8.04c-4.02,0-9.04-1-12.56-1.51
			c-3.52-0.5-9.04-1.51-13.57-1c-4.52,0.5-13.57,4.52-17.08,5.02c-3.52,0.5-8.75-1.59-16.08,0c-5.78,1.26-10.05,11.56-14.07,15.58
			s-4.77,23.36-4.27,26.88c0.5,3.52-0.25,16.83,1.26,22.36c0-4.52,1.51-26.63,3.52-30.15c2.01-3.52,8.04-6.03,11.05-5.53
			c1.95,0.33,5.7,0.33,9.05-0.11c-0.14,0.96-0.15,1.96-0.02,2.95c0.18,1.36,0.76,2.69,1.57,3.8c0.82,1.12,1.87,2.04,3.03,2.75
			c1.15,0.72,2.42,1.22,3.72,1.54c1.31,0.31,2.62,0.43,3.92,0.42c2.6-0.04,5.09-0.54,7.52-1.25c-2.53-0.13-5.04-0.06-7.45-0.33
			c-1.2-0.13-2.38-0.35-3.5-0.68c-0.55-0.18-1.11-0.36-1.63-0.61c-0.53-0.23-1.04-0.5-1.53-0.8c-1.96-1.19-3.53-2.94-4.1-5.16
			c-0.24-0.9-0.36-1.84-0.36-2.81c0.62-0.11,1.22-0.23,1.78-0.37c0.04,0.16,0.07,0.32,0.11,0.48c0.55,1.93,1.58,3.72,2.95,5.19
			c1.37,1.47,3.09,2.63,4.96,3.32c0.93,0.35,1.93,0.56,2.86,0.68c0.94,0.12,1.85,0.24,2.79,0.48c-0.73-0.64-1.66-1.04-2.52-1.43
			c-0.88-0.37-1.7-0.72-2.47-1.17c-1.55-0.88-2.94-1.97-4.14-3.25c-1.19-1.29-2.19-2.75-2.94-4.36c-0.06-0.13-0.11-0.26-0.16-0.38
			c0.13-0.05,0.27-0.1,0.4-0.15c3.52-1.51,11.05,2.01,14.07,2.51c3.01,0.5,13.82-0.75,17.84-2.26c4.02-1.51,11.56,4.52,15.07,7.54
			s0.5,18.09,0.5,18.09s4.52,0.5,6.03,4.02c1.6,3.72-1.76,22.86-1.76,22.86s4.52,0.5,6.03-1.51c1.37-1.83,1.08-5.32,4.42-7.45
			c0.01-0.02,0.03-0.04,0.04-0.07c1.15-0.86,2.21-1.82,3.33-2.68c1.13-0.87,2.32-1.64,3.58-2.25c1.26-0.6,2.6-1.04,3.93-1.06
			c1.25-0.08,2.39,0.7,3.3,1.67c0.92,0.98,1.63,2.18,2.12,3.44c0.49,1.24,0.59,2.57,0.52,3.95c-0.07,1.38-0.3,2.77-0.57,4.16
			c-0.57,2.82-1.14,5.64-1.92,8.35c-0.39,1.35-0.86,2.66-1.41,3.93c-0.56,1.27-1.22,2.48-1.96,3.67c-0.74,1.19-1.57,2.34-2.4,3.49
			l-1.28,1.72c-0.44,0.58-0.84,1.13-1.27,1.61c-0.43,0.47-0.89,0.88-1.36,1.16c-0.47,0.27-0.94,0.41-1.43,0.41
			c-1.01,0.01-2.18-0.59-3.4-1.3l-1.57-0.92l-0.28,1.81c-0.49,3.17-1.1,6.34-1.71,9.53c-0.61,3.19-1.23,6.4-1.7,9.64
			c-0.48,3.25-0.78,6.54-0.78,9.86c0,1.66,0.07,3.32,0.24,4.98c0.13,1.36,0.37,2.69,0.55,3.96c-0.9,0.09-1.83,0.28-2.83,0.6
			c-2.38,0.77-4.56,2-6.38,3.12c-3.72,2.36-7.71,4.9-11.7,7.55c-3.9,2.58-7.73,5.31-11.37,8.11c-1.65,1.27-3.43,2.71-5.44,4.38
			c-1.63,1.36-3.48,2.89-5.39,4.29c-2.04,1.5-3.92,2.66-5.75,3.54c-1.07,0.5-2.09,0.91-3.11,1.23l-3.33,1.04
			c-0.64,0.21-1.19,0.41-1.69,0.61c-0.28,0.11-0.56,0.24-0.84,0.37c-0.22,0.1-0.45,0.22-0.67,0.38c-0.25-0.43-0.56-0.83-0.93-1.2
			l-1.77-1.65c-1.17-1.09-2.37-2.2-3.57-3.28l-0.39-0.35c0.17-1.43,0.31-2.87,0.39-4.31c0.18-3.49,0.1-6.99-0.28-10.46
			c-0.39-3.47-1.03-6.91-2.12-10.22c0.05,3.49,0.16,6.91,0.15,10.33c0,3.42-0.08,6.82-0.26,10.22c-0.04,0.79-0.1,1.59-0.16,2.38
			c-0.31-0.28-0.62-0.56-0.93-0.84l-0.83,0.71c-0.76,0.52-2.36,1.68-4.53,3.55c-0.41,0.02-0.82,0.05-1.22,0.11
			c-1.12,0.13-2.18,0.51-3.22,0.91l-1.48,0.68c-0.49,0.24-0.96,0.51-1.44,0.77c-1.9,1.08-3.62,2.53-4.98,4.26
			c-0.75,0.95-1.38,1.95-1.98,2.96c-0.91,0.37-1.82,0.67-2.72,0.9c-7.54,1.89-15.08,0.36-20.64,0.86c-0.57-0.46-1.14-0.9-1.69-1.38
			c-0.95-0.8-1.89-1.62-2.81-2.46l-5.51-5.1c-1.82-1.71-3.62-3.45-5.41-5.2l-5.35-5.27c-1.76-1.77-3.58-3.52-5.17-5.37
			c-0.4-0.46-0.75-0.94-1.17-1.45c-0.41-0.51-0.86-0.99-1.3-1.45c-0.89-0.92-1.86-1.78-2.84-2.58c-1.96-1.61-4-3.09-6.03-4.55
			c-0.5-0.37-1.01-0.73-1.49-1.1c-0.54-0.42-1.15-0.78-1.82-1.03c-1.33-0.51-2.88-0.47-4.17,0.13c-1.29,0.58-2.36,1.58-2.98,2.84
			c-0.64,1.24-0.79,2.83-0.15,4.16c0.16,0.34,0.35,0.6,0.52,0.87c0.17,0.28,0.37,0.53,0.55,0.79c0.38,0.52,0.77,1.02,1.17,1.51
			c0.8,0.98,1.63,1.93,2.48,2.86c1.7,1.86,3.45,3.65,5.22,5.44l2.66,2.66c0.9,0.9,1.83,1.74,2.76,2.57
			c1.53,1.36,3.09,2.69,4.66,3.99c-0.51-0.01-1.04,0.1-1.49,0.33c-0.6,0.29-1.07,0.72-1.44,1.18c-0.38,0.46-0.67,0.94-0.93,1.43
			c-0.25,0.48-0.48,0.97-0.69,1.48c-0.41,1.01-0.73,2.08-0.83,3.21c-0.1,1.12,0.03,2.3,0.45,3.36c0.23,0.62,0.55,1.18,0.9,1.72
			c-0.95,0.25-1.88,0.58-2.76,1.13c-0.44,0.28-0.85,0.64-1.2,1.07c-0.35,0.43-0.59,0.98-0.72,1.53c-0.13,0.55-0.15,1.1-0.14,1.6
			l0.03,1.49c0.04,0.99,0.12,1.98,0.19,2.97c0.08,0.85,0.18,1.7,0.3,2.55c-0.78,0.35-1.46,0.91-1.99,1.58
			c-0.56,0.73-0.97,1.58-1.23,2.48c-0.51,1.8-0.42,3.69-0.26,5.5c0.19,1.81,0.35,3.63,0.75,5.45c0.39,1.83,1.15,3.57,2.05,5.18
			c0.9,1.62,1.93,3.13,2.95,4.63c1.03,1.5,2.08,2.99,3.15,4.46c2.16,2.94,4.44,5.79,6.85,8.54c0.45,0.5,0.9,1.01,1.37,1.5
			c-3.59,13.65-6.26,24.53-6.26,24.53s12.68,11.58,39.63,20.01c0.98,1.46,1.98,2.9,3.01,4.32c1.1,1.53,2.24,3.05,3.44,4.52
			c-0.83-1.71-1.72-3.37-2.64-5.02c-0.92-1.65-1.87-3.27-2.85-4.88c-0.48-0.81-0.98-1.61-1.48-2.41c-0.5-0.8-0.99-1.6-1.51-2.39
			l-1.54-2.37l-1.57-2.33c-0.34-0.65-0.62-1.34-0.79-2.07c-0.08-0.35-0.15-0.71-0.21-1.07c-0.07-0.96-0.01-1.94,0.13-2.92
			c0.16-1.05,0.33-2.1,0.6-3.12c0.26-1.03,0.56-2.04,0.93-3.04c0.36-1,0.77-1.98,1.22-2.93c1.81-3.84,4.41-7.28,7.45-10.24
			c3.05-2.97,6.57-5.42,10.33-7.43c1.89-0.98,3.79-2.06,5.72-2.1c1.95-0.06,3.87,0.82,5.54,2.03c1.69,1.21,3.17,2.75,4.64,4.32
			c1.46,1.57,2.84,3.21,4.14,4.92c1.13,1.45,2.19,2.96,3.2,4.5c1.04,1.63,2.02,3.29,2.97,4.98c0.02,0.03,0.04,0.07,0.05,0.1
			c-0.02,0.43-0.07,0.85-0.15,1.26c-1.12,1.33-2.27,2.65-3.45,3.96c-1.3,1.43-2.59,2.88-3.87,4.36c-1.26,1.49-2.49,3.01-3.6,4.62
			c-0.94,1.35-1.78,2.77-2.5,4.25c-0.04,0.03-0.08,0.07-0.12,0.1c-1.68,4.03-4.18,8.55-7.98,10.7c-0.08,0.04-0.15,0.08-0.23,0.12
			c11.95,2.33,25.79,3.86,41.66,3.86c1.17,0,2.34,0,3.51-0.01c0.1-2.02,0.28-4.04,0.49-6.06c0.29-2.65,0.64-5.31,1.11-7.94
			c0.47-2.63,1.01-5.26,1.73-7.85c0.37-1.3,0.77-2.58,1.33-3.85c0.27-0.63,0.66-1.26,0.99-1.81l1.02-1.71
			c1.35-2.29,2.73-4.6,4.23-6.82c2.84-4.17,6.09-8.05,9.59-11.66c-1.12-0.62-2.21-1.33-3.2-2.17c-1.25-1.05-2.34-2.3-3.24-3.65
			c-1.81-2.72-2.87-5.78-3.75-8.82l-0.33-1.15l1.2,0.19c1.69,0.26,3.47,0.36,5.23,0.42c1.77,0.06,3.55,0.06,5.32,0.03
			c1.78-0.03,3.56-0.08,5.32-0.18l1.32-0.09l0.64-0.06c0.02,0,0.04,0,0.05-0.01l0.01-0.13l0.03-0.64l0.04-1.32
			c0.06-3.56,0.1-7.16,0.34-10.74c0.12-1.79,0.28-3.59,0.53-5.38c0.27-1.79,0.61-3.58,1.23-5.34c0.16-0.44,0.34-0.87,0.55-1.3
			l0.63-1.2c0.42-0.8,0.87-1.58,1.31-2.36c0.9-1.56,1.82-3.09,2.77-4.61c1.89-3.04,3.85-6.04,5.82-9.02l2.99-4.45
			c0.98-1.5,2.02-2.94,2.64-4.6c0.65-1.64,1.01-3.39,1.16-5.16c0.14-1.77,0.09-3.57-0.24-5.32c0.78,3.48,0.67,7.21-0.53,10.63
			c-0.16,0.42-0.34,0.84-0.51,1.26l-0.62,1.21c-0.45,0.78-0.92,1.54-1.39,2.3l-2.84,4.55c-1.91,3.02-3.8,6.05-5.62,9.11
			c-0.91,1.53-1.8,3.08-2.66,4.63c-0.42,0.78-0.85,1.56-1.25,2.35l-0.59,1.18c-0.18,0.38-0.33,0.77-0.47,1.18
			c-0.54,1.63-0.84,3.37-1.06,5.12c-0.23,1.75-0.37,3.52-0.47,5.29c-0.2,3.55-0.2,7.1-0.23,10.69c0,0.45-0.01,0.9-0.03,1.35
			l-0.03,0.7c-0.01,0.12-0.02,0.24-0.03,0.37c-0.01,0.07-0.02,0.13-0.03,0.21c-0.01,0.03-0.01,0.08-0.03,0.13l-0.02,0.07l-0.04,0.12
			l-0.03,0.06c-0.01,0.02-0.05,0.09-0.08,0.13c-0.07,0.1-0.16,0.17-0.21,0.2c-0.12,0.08-0.32,0.14-0.31,0.13
			c-0.08,0.02-0.17,0.04-0.23,0.04c-0.13,0.02-0.25,0.04-0.37,0.05l-0.69,0.07l-1.35,0.1c-1.8,0.11-3.59,0.17-5.39,0.2
			c-1.8,0.03-3.59,0.04-5.39-0.02c-1.41-0.05-2.82-0.11-4.24-0.27c0.78,2.57,1.74,5.08,3.19,7.27c0.83,1.25,1.81,2.38,2.95,3.35
			c1.14,0.97,2.42,1.77,3.77,2.46l0.91,0.46l-0.72,0.71c-3.76,3.73-7.23,7.74-10.25,12.08c-1.52,2.16-2.93,4.4-4.33,6.67l-1.06,1.7
			c-0.37,0.59-0.7,1.08-0.96,1.67c-0.55,1.16-0.97,2.42-1.35,3.67c-0.76,2.53-1.35,5.12-1.87,7.72c-0.51,2.61-0.96,5.23-1.34,7.86
			c-0.27,1.99-0.51,3.99-0.68,5.99c15.61-0.08,30.96-0.61,45.34-1.37c-0.47-2.37-0.75-4.78-0.95-7.17
			c-0.33-4.81-0.43-9.64-0.16-14.46c0.52-9.64,2.28-19.27,5.64-28.36c1.69-4.54,3.74-8.96,6.21-13.13c2.5-4.15,5.36-8.09,8.61-11.68
			c6.44-7.23,14.51-13.02,23.45-16.58c-4.34,2.07-8.45,4.57-12.21,7.51c-0.96,0.7-1.85,1.51-2.78,2.26c-0.91,0.77-1.77,1.6-2.65,2.4
			c-0.83,0.85-1.7,1.67-2.52,2.54c-0.8,0.88-1.64,1.73-2.39,2.66c-3.09,3.62-5.87,7.51-8.26,11.63c-2.38,4.12-4.38,8.45-6.02,12.92
			c-1.66,4.46-2.95,9.06-3.9,13.73c-0.98,4.67-1.6,9.41-1.99,14.17c-0.36,4.76-0.43,9.56-0.28,14.34c0.08,2.39,0.24,4.78,0.6,7.15
			c0,0.02,0.01,0.03,0.01,0.05c47.54-2.55,84.3-7.7,84.3-7.7s1.3-26.01,1.3-35.12C264.95,252.55,261.05,226.54,254.55,217.44z
			 M103.79,189.95c-0.55-1.06-1.41-1.95-2.39-2.58c-0.75-0.48-1.57-0.81-2.42-1.03c0.66-1.82,1.21-2.9,1.57-3.5
			c0.15,0.08,0.44,0.17,0.9,0.65c0.17,0.17,0.73,0.72,1.3,1.27c0.55,0.54,1.1,1.08,1.26,1.24c1.14,1.19,2.28,2.35,3.38,3.47
			l1.69,1.71c0.47,0.49,0.8,1.09,0.94,1.69c0.14,0.62,0.08,1.22-0.2,1.69c-0.13,0.24-0.32,0.47-0.56,0.66
			c-0.11,0.1-0.26,0.21-0.42,0.32l-0.49,0.35c-3.24,2.34-5.55,4.32-7.49,6.42c-1.19,1.32-2.21,2.68-3.01,4.03
			c-0.11,0.19-0.47,0.87-0.77,1.45c-0.3-0.63-0.66-1.43-0.82-1.8c-0.52-1.24-1.14-2.4-1.86-3.45c0.13-0.58,0.26-1.15,0.38-1.7
			c0.07-0.11,0.14-0.23,0.21-0.34c0.34-0.52,0.71-1,1.12-1.42c0.41-0.44,0.85-0.78,1.39-1.13c2.12-1.39,4.4-2.68,6.65-3.93
			l0.37-0.21l0.01-0.41C104.59,192.22,104.35,191.01,103.79,189.95z M90.72,249.77c-0.25-5.69-0.31-11.75-0.05-18.03
			c0.44-10.63,1.79-19.9,3.38-27.51c0.36,0.74,0.68,1.49,0.93,2.24l0.09,0.25c0.39,1.14,0.82,2.43,0.89,3.67
			c0.07,1.38,0.09,3.31,0.09,3.33l0.99,0.13l0.67-2.32c0.35-1.19,0.84-2.37,1.48-3.52c0.89,1.99,2.93,5.86,5.79,6.82
			C104.98,224.86,96.07,239.31,90.72,249.77z M110.24,257.01c0.17-9.01,0.89-29.05,3.85-40.87c3.02,1.01,5.8-2.39,6.91-3.98
			c0.25,0.52,0.5,1.03,0.74,1.55c1.03,2.22,1.92,4.29,2.75,6.34c0.62,1.58,1.21,3.16,1.78,4.73
			C120.62,235.35,115.05,246.77,110.24,257.01z M82.98,252.58c-3.87,2.06-7.5,4.63-10.64,7.71c-3.15,3.07-5.78,6.71-7.62,10.72
			c-0.75,1.63-1.36,3.32-1.82,5.05c-0.92-1.55-1.9-3.08-2.94-4.57c-1.07-1.48-2.2-2.92-3.41-4.3c-1.22-1.37-2.49-2.69-3.86-3.92
			c-1.37-1.22-2.79-2.4-4.33-3.42c-0.37-0.27-0.77-0.51-1.16-0.76c-0.39-0.25-0.78-0.5-1.18-0.73l-2.37-1.35
			c-1.57-0.89-3.06-1.8-4.38-2.96c-1.33-1.15-2.53-2.47-3.72-3.83c-2.4-2.7-4.65-5.51-6.84-8.39c-1.09-1.44-2.16-2.89-3.21-4.37
			c-1.04-1.48-2.1-2.94-3.02-4.46c-0.92-1.53-1.66-3.12-2.11-4.83c-0.46-1.71-0.7-3.51-0.97-5.3c-0.27-1.78-0.46-3.58-0.08-5.32
			c0.19-0.86,0.53-1.7,1.03-2.44c0.45-0.69,1.07-1.29,1.81-1.7c0.16,1.11,0.35,2.22,0.58,3.31c0.41,1.94,0.92,3.86,1.63,5.72
			c-0.1-1.99-0.28-3.94-0.47-5.9l-0.55-5.84c-0.1-0.97-0.19-1.94-0.27-2.92c-0.08-0.97-0.23-1.98-0.16-2.8
			c0.08-0.82,0.53-1.59,1.22-2.22c0.66-0.64,1.49-1.16,2.31-1.7c0.25,0.38,0.52,0.75,0.81,1.09c1.36,1.67,2.97,2.98,4.09,4.65
			c0.58,0.82,0.99,1.74,1.18,2.73c0.19,0.98,0.13,2.04-0.33,2.98c0.6-0.86,0.83-1.97,0.75-3.04c-0.08-1.07-0.44-2.13-0.97-3.07
			c-1.06-1.89-2.61-3.37-3.79-4.98c-0.59-0.81-1.09-1.66-1.4-2.55c-0.31-0.89-0.38-1.83-0.27-2.77c0.11-0.94,0.38-1.88,0.77-2.79
			c0.39-0.9,0.85-1.83,1.42-2.51c0.28-0.35,0.6-0.63,0.94-0.8c0.34-0.17,0.69-0.23,1.08-0.17c0.79,0.11,1.61,0.64,2.4,1.24
			c1.58,1.19,2.91,2.76,4.31,4.3c1.38,1.55,2.87,3.12,4.67,4.27c0.9,0.57,1.87,1.05,2.89,1.34c1.02,0.3,2.1,0.38,3.13,0.23
			c-2.1-0.02-4.02-0.93-5.6-2.18c-1.62-1.23-2.9-2.81-4.21-4.43c-1.29-1.62-2.64-3.27-4.32-4.66c-0.83-0.67-1.79-1.37-3.07-1.58
			c-0.11-0.02-0.21-0.02-0.32-0.03c-1.52-1.42-3.03-2.85-4.52-4.29c-0.89-0.87-1.78-1.76-2.62-2.67l-2.54-2.78
			c-1.7-1.84-3.39-3.68-5.01-5.58c-0.81-0.95-1.62-1.9-2.37-2.88c-0.38-0.49-0.75-0.98-1.1-1.49c-0.17-0.25-0.35-0.5-0.5-0.76
			c-0.16-0.26-0.32-0.52-0.43-0.75c-0.44-0.96-0.32-2.12,0.2-3.09c0.51-0.98,1.38-1.78,2.38-2.21c1.01-0.44,2.14-0.45,3.16-0.05
			c0.51,0.2,0.99,0.49,1.43,0.84c0.51,0.41,1.01,0.78,1.51,1.16c2.01,1.5,4.03,2.96,5.94,4.54c0.96,0.79,1.86,1.6,2.71,2.48
			c0.43,0.44,0.83,0.88,1.21,1.35c0.37,0.47,0.76,0.99,1.18,1.48c1.69,1.94,3.5,3.66,5.28,5.44c1.79,1.76,3.58,3.52,5.39,5.25
			c1.82,1.73,3.64,3.45,5.5,5.14c1.87,1.68,3.72,3.36,5.62,5.01c0.95,0.82,1.92,1.64,2.9,2.42c0.49,0.39,0.99,0.78,1.49,1.16
			c0.51,0.39,1,0.73,1.45,1.14c1.87,1.58,3.32,3.6,4.9,5.58c0.41,0.48,0.84,1,1.43,1.36c0.54,0.35,1.09,0.66,1.64,0.96l3.31,1.79
			c1.1,0.6,2.19,1.2,3.26,1.85c0.54,0.32,1.06,0.65,1.57,1.02c0.26,0.18,0.5,0.37,0.73,0.58c0.23,0.21,0.45,0.44,0.57,0.73
			c-0.09-0.3-0.31-0.55-0.53-0.77c-0.22-0.22-0.46-0.43-0.7-0.63c-0.49-0.4-1-0.76-1.52-1.12c-1.04-0.7-2.11-1.36-3.19-2.01
			l-3.22-1.93c-0.21-0.13-0.42-0.26-0.63-0.39c1.25-0.22,2.49-0.48,3.72-0.82c2.06-0.56,4.09-1.28,5.98-2.35
			c0.96-0.51,1.83-1.18,2.64-1.93c0.77-0.77,1.47-1.61,2.1-2.49c1.25-1.77,2.25-3.64,3.57-5.22c1.31-1.58,2.93-2.87,4.74-3.86
			c0.46-0.23,0.91-0.49,1.38-0.71l1.42-0.63c0.95-0.34,1.91-0.67,2.9-0.77c1.97-0.28,4.03,0.06,5.64,1.08
			c0.79,0.52,1.45,1.22,1.88,2.05c0.37,0.71,0.54,1.5,0.57,2.31c-2.16,1.19-4.3,2.38-6.39,3.77c-0.55,0.36-1.14,0.83-1.62,1.34
			c-0.49,0.51-0.91,1.07-1.28,1.64c-0.74,1.15-1.3,2.34-1.96,3.38c-0.33,0.52-0.68,1-1.09,1.42c-0.49,0.5-0.91,1.01-1.33,1.52
			c-0.83,1.03-1.6,2.09-2.36,3.16c-0.76,1.07-1.49,2.16-2.19,3.27c-0.35,0.56-0.69,1.12-1.02,1.7c-0.33,0.57-0.64,1.2-0.89,1.83
			c-0.97,2.51-1.53,5.07-2.04,7.64c-0.4,2.51-1.47,4.88-2.34,7.35c-0.22,0.62-0.43,1.24-0.61,1.88c-0.18,0.64-0.34,1.28-0.42,1.95
			c-0.15,1.34-0.07,2.65,0.01,3.95c0.19,2.61,0.54,5.19,0.98,7.75c-0.14-1.29-0.25-2.59-0.34-3.89c-0.1-1.3-0.18-2.59-0.21-3.89
			c-0.01-0.67-0.02-1.35,0-2.01c0.37,0.73,0.98,1.36,1.48,1.97c0.29,0.34,0.58,0.67,0.84,1.02c0.13,0.17,0.27,0.34,0.41,0.51
			l0.39,0.52c1.04,1.4,2,2.86,2.99,4.33c1,1.46,2.03,2.94,3.25,4.29c0.33,0.37,0.69,0.73,1.06,1.08c-0.85,0.13-1.67,0.4-2.42,0.71
			C84.92,251.58,83.96,252.07,82.98,252.58z M96.88,290.65c0.37-0.52,0.74-1.04,1.12-1.56C97.71,289.67,97.33,290.19,96.88,290.65z
			 M171.31,166.72c-2.6,3.9-23.41,19.51-40.32,49.42c-1.33,2.36-2.67,4.8-4.01,7.29c-1.09-3.36-2.37-6.76-3.89-10.33
			c-1.86-4.29-3.97-8.49-6.26-12.5c-1.1-1.96-2.33-3.97-3.66-5.98l-0.65-0.99c-0.1-0.15-0.19-0.29-0.27-0.42
			c-0.1-0.18-0.13-0.28-0.13-0.3c0-0.01,0-0.03,0.07-0.09c0.21-0.19,0.65-0.37,1.05-0.53l0.21-0.09c0.46-0.18,0.98-0.37,1.57-0.56
			l3.33-1.01c1.1-0.35,2.22-0.79,3.36-1.31c1.98-0.93,3.97-2.14,6.1-3.7c1.96-1.45,3.82-3.01,5.46-4.4c2-1.69,3.7-3.08,5.36-4.37
			c3.59-2.81,7.34-5.46,11.19-8.15c3.84-2.66,7.74-5.25,11.51-7.76c1.71-1.12,3.76-2.38,5.99-3.17c1.33-0.48,2.63-0.72,3.86-0.72
			c0.54,0,1.07,0.05,1.58,0.15C173,159.1,173.33,163.69,171.31,166.72z"/>
		<path d="M88.55,288.34c0.23-0.44,0.48-0.86,0.74-1.28c0.25-0.43,0.52-0.84,0.79-1.25c1.08-1.64,2.3-3.18,3.6-4.65
			c0.64-0.75,1.32-1.46,2.01-2.16c0.34-0.36,0.7-0.7,1.04-1.05c0.36-0.34,0.72-0.68,1.07-1.03c1.44-1.37,2.93-2.69,4.41-4.08
			c-1.83,0.87-3.55,1.96-5.17,3.19c-0.82,0.61-1.58,1.28-2.34,1.96c-0.75,0.7-1.46,1.43-2.15,2.19c-1.36,1.53-2.54,3.23-3.48,5.06
			c-0.23,0.46-0.47,0.91-0.65,1.39c-0.2,0.47-0.39,0.95-0.54,1.44l-0.23,0.73c-0.07,0.25-0.13,0.49-0.19,0.74l-0.17,0.74
			c0.01,0.06-0.11,0.14-0.21,0.25c-0.02,0.03-0.04,0.06-0.05,0.1c-0.02,0.04,0.02,0.12,0.06,0.12c0.04,0.01,0.07,0,0.11-0.01
			c0.02-0.01,0.03-0.01,0.05-0.04c-0.01-0.03-0.03-0.02-0.05-0.02c0.01,0.01,0.03,0.02,0.03,0.02c0,0-0.02,0.01-0.04,0.01
			c-0.03,0-0.06-0.01-0.08-0.02c-0.03-0.02,0.01-0.05,0.05-0.08c0.08-0.07,0.23-0.07,0.34-0.25l0.35-0.67l0.34-0.67L88.55,288.34z"
			/>
		<path d="M73.76,291.57c3.9,2.6,6.5,0,3.9-5.2C75.07,281.17,69.86,288.97,73.76,291.57z"/>
		<path d="M34.89,184.81c-0.42,0.31-0.82,0.65-1.19,1.03c-0.37,0.38-0.7,0.8-1.04,1.31c0.62,0.05,1.18-0.12,1.69-0.32
			c0.51-0.21,0.98-0.48,1.42-0.79c0.43-0.32,0.83-0.68,1.19-1.1c0.35-0.42,0.68-0.89,0.86-1.48c-0.6,0.12-1.1,0.31-1.59,0.55
			C35.76,184.23,35.31,184.5,34.89,184.81z"/>
		<path d="M25,174.31c-0.46,0.33-0.89,0.7-1.3,1.1c-0.41,0.41-0.8,0.85-1.16,1.4c0.66,0,1.25-0.18,1.81-0.41
			c0.55-0.23,1.07-0.53,1.55-0.88c0.48-0.35,0.92-0.76,1.3-1.24c0.37-0.48,0.72-1.03,0.82-1.69c-0.59,0.27-1.1,0.51-1.6,0.79
			C25.93,173.67,25.46,173.98,25,174.31z"/>
		<path d="M19.16,166.86c-0.4,0.58-0.84,1.11-1.32,1.6c-0.48,0.49-1,0.93-1.58,1.34c-0.58,0.41-1.2,0.78-1.94,1.15
			c0.79,0.25,1.67,0.18,2.46-0.09c0.8-0.27,1.53-0.74,2.13-1.35c0.6-0.6,1.06-1.35,1.31-2.15c0.25-0.8,0.32-1.67,0.06-2.46
			C19.92,165.64,19.57,166.27,19.16,166.86z"/>
		<path d="M94.37,196.66c0.36-0.65,0.77-1.26,1.23-1.84c0.46-0.59,0.96-1.16,1.47-1.76c0.51-0.6,1.05-1.22,1.5-1.95
			c-0.83,0.24-1.58,0.6-2.28,1.06c-0.7,0.46-1.35,1.04-1.88,1.72c-0.54,0.69-0.95,1.49-1.15,2.36c-0.2,0.86-0.18,1.79,0.2,2.58
			C93.71,198.01,94.01,197.32,94.37,196.66z"/>
		<path d="M41.55,204.53c-0.6,0.09-1.18,0.31-1.68,0.65c-0.51,0.33-0.94,0.78-1.25,1.3c-0.31,0.52-0.51,1.11-0.46,1.74
			c0.52-0.35,0.93-0.66,1.34-0.95c0.41-0.29,0.8-0.56,1.2-0.83c0.4-0.26,0.8-0.52,1.23-0.78c0.43-0.27,0.88-0.53,1.4-0.86
			C42.77,204.49,42.15,204.45,41.55,204.53z"/>
		<path d="M28.5,218.47c-0.34,0.41-0.59,0.9-0.71,1.44c-0.11,0.53-0.1,1.12,0.19,1.62c0.34-0.45,0.61-0.8,0.89-1.13l0.8-0.98
			c0.27-0.33,0.54-0.67,0.8-1.06c0.26-0.39,0.53-0.81,0.7-1.36c-0.57,0.06-1.04,0.23-1.49,0.48
			C29.24,217.73,28.84,218.06,28.5,218.47z"/>
		<path d="M24.24,227.71c-0.23,0.26-0.4,0.56-0.5,0.88c-0.1,0.32-0.12,0.66-0.06,1.01c0.06,0.34,0.2,0.69,0.5,1
			c0.32-0.29,0.51-0.56,0.67-0.81c0.15-0.26,0.26-0.51,0.34-0.77c0.08-0.26,0.12-0.53,0.13-0.83c0.01-0.3-0.01-0.62-0.12-1.04
			C24.77,227.25,24.48,227.46,24.24,227.71z"/>
		<path d="M54.81,258.83c-0.73-0.49-1.51-0.89-2.32-1.22c-0.81-0.32-1.65-0.59-2.55-0.71c0.61,0.68,1.29,1.22,1.97,1.74
			c0.68,0.51,1.38,0.99,2.07,1.45l2.08,1.36c0.7,0.45,1.4,0.92,2.18,1.39c-0.3-0.86-0.82-1.62-1.41-2.28
			C56.23,259.89,55.54,259.32,54.81,258.83z"/>
	</g>
</g>
</svg>
