<?xml version="1.0" encoding="utf-8"?>
<!-- Generator: Adobe Illustrator 23.0.1, SVG Export Plug-In . SVG Version: 6.00 Build 0)  -->
<svg version="1.1" xmlns="http://www.w3.org/2000/svg" xmlns:xlink="http://www.w3.org/1999/xlink" x="0px" y="0px"
	 viewBox="0 0 300.35 58.34" style="enable-background:new 0 0 300.35 58.34;" xml:space="preserve">
<style type="text/css">
	.st0{display:none;}
	.st1{display:inline;}
	.st2{fill:#22B573;}
	.st3{display:inline;fill:#22B573;}
	.st4{fill:#FFFFFF;}
	.st5{display:inline;fill:#FFFFFF;}
	.st6{fill:#29ABE2;}
	.st7{display:inline;fill:#29ABE2;}
	.st8{display:none;fill:#FFFFFF;}
	.st9{display:none;fill:#29ABE2;}
	.st10{display:inline;stroke:#FFFFFF;stroke-width:20;stroke-miterlimit:10;}
	.st11{fill:#D1D3D4;}
	.st12{display:none;opacity:0.2;}
</style>
<g id="Layer_1" class="st0">
</g>
<g id="Layer_2" class="st0">
</g>
<g id="Layer_3" class="st0">
</g>
<g id="Layer_3_copy" class="st0">
</g>
<g id="Layer_4" class="st0">
</g>
<g id="Layer_7">
</g>
<g id="Layer_6">
</g>
<g id="Layer_8">
</g>
<g id="Layer_11" class="st0">
</g>
<g id="xlarge">
	<g>
		<g>
			<path class="st4" d="M8.78,49.56C8.39,49.23,8.13,48.81,8,48.31c-0.13-0.5-0.2-0.93-0.2-1.29c0-0.44,0.05-0.82,0.15-1.13
				c-0.08,0-0.27,0.17-0.56,0.51c-0.29,0.34-0.6,0.74-0.94,1.2c-0.34,0.46-0.67,0.92-1,1.36c-0.33,0.44-0.58,0.77-0.74,0.98
				c-0.27,0.3-0.52,0.53-0.76,0.69c-0.24,0.17-0.44,0.28-0.57,0.29c-0.3,0.02-0.67-0.05-1.03-0.17c-0.36-0.11-0.7-0.28-1.02-0.49
				c-0.32-0.21-0.6-0.46-0.83-0.76c-0.24-0.3-0.44-0.67-0.48-1.01c-0.06-0.52,0.02-1.07,0.05-1.45c0.03-0.38,0.1-0.79,0.2-1.23
				c0.19-0.8,0.46-1.7,0.82-2.7c0.36-1.01,0.78-2,1.25-2.97c0.47-0.98,1-1.89,1.59-2.74c0.59-0.85,1.21-1.52,1.87-2.01
				c0.19,0,0.4,0.01,0.65,0.04c0.25,0.03,0.5,0.08,0.76,0.16c0.26,0.08,0.5,0.18,0.74,0.29c0.24,0.11,0.44,0.26,0.6,0.45
				c-0.19,0.21-0.65,0.92-1.4,2.12c-0.75,1.2-1.59,2.93-2.51,5.18c-0.1,0.23-0.23,0.57-0.37,1.01c-0.14,0.44-0.29,0.9-0.43,1.39
				c-0.14,0.48-0.26,0.95-0.35,1.42c-0.09,0.46-0.14,0.83-0.14,1.1c0,0.17,0.03,0.29,0.08,0.38c0.05,0.08,0.1,0.15,0.14,0.19
				c0.31-0.13,0.7-0.48,1.17-1.05c0.47-0.57,1.13-1.44,1.97-2.63c0.21-0.3,0.45-0.63,0.73-1.01c0.28-0.38,0.56-0.79,0.85-1.22
				c0.29-0.43,0.56-0.88,0.82-1.35c0.26-0.46,0.47-0.93,0.63-1.39c0.08-0.25,0.19-0.55,0.32-0.9c0.13-0.35,0.3-0.71,0.49-1.09
				c0.2-0.38,0.42-0.77,0.68-1.16c0.26-0.39,0.56-0.76,0.91-1.1c0.27-0.01,0.56,0.02,0.86,0.08c0.31,0.06,0.6,0.13,0.88,0.22
				c0.28,0.09,0.52,0.19,0.72,0.3c0.21,0.11,0.36,0.23,0.46,0.35c-0.37,0.93-0.78,1.85-1.23,2.76c-0.45,0.91-0.87,1.81-1.26,2.68
				c-0.39,0.88-0.72,1.75-0.99,2.61c-0.27,0.86-0.4,1.7-0.4,2.52c0,0.44,0.04,0.82,0.11,1.15c0.07,0.32,0.15,0.59,0.23,0.81
				s0.16,0.4,0.23,0.55c0.07,0.15,0.11,0.27,0.11,0.37c0,0.02-0.02,0.05-0.06,0.1c-0.02,0.02-0.04,0.03-0.06,0.03
				c-0.14,0-0.33-0.03-0.56-0.08c-0.23-0.06-0.48-0.14-0.76-0.25c-0.28-0.11-0.56-0.24-0.83-0.38C9.29,49.87,9.03,49.72,8.78,49.56z
				"/>
			<path class="st4" d="M26.07,37.21c0.03,0.34-0.09,0.82-0.2,1.25s-0.25,0.83-0.42,1.18c-0.17,0.35-0.34,0.65-0.52,0.88
				c-0.19,0.24-0.37,0.37-0.53,0.37c-0.22,0-0.36-0.16-0.4-0.46c0-0.06,0.03-0.16,0.08-0.3c0.05-0.14,0.11-0.29,0.17-0.46
				c0.06-0.17,0.12-0.34,0.17-0.51c0.05-0.17,0.08-0.32,0.08-0.44c0-0.29-0.07-0.54-0.2-0.73c-0.13-0.19-0.31-0.29-0.54-0.28
				c-0.82,0.03-1.45,0.57-1.88,1.63c-0.43,1.06-0.65,2.6-0.65,4.62c0,0.21,0.01,0.36,0.03,0.38c0.17,0.1,0.82-0.03,1.16-0.04
				c0.34-0.01,0.88-0.11,1-0.04c0.02,0.01,0.03,0.12,0.03,0.25c0,0.19-0.04,0.32-0.12,0.41c-0.47,0.12-0.85,0.22-1.13,0.31
				c-0.28,0.08-0.49,0.16-0.63,0.22c-0.14,0.07-0.23,0.14-0.26,0.21c-0.03,0.07-0.05,0.17-0.05,0.3c0,0.17,0.01,0.33,0.02,0.5
				c0.01,0.17,0.02,0.37,0.02,0.62c0,1.75-0.47,3.18-1.4,4.27c-0.94,1.1-2.24,1.75-3.9,1.96c-0.29-0.01-0.59-0.09-0.89-0.23
				c-0.31-0.14-0.6-0.32-0.88-0.55c-0.28-0.22-0.52-0.48-0.73-0.75c-0.21-0.28-0.4-0.6-0.43-0.85c-0.09-0.69,0.16-1.57,0.49-2.31
				c0.33-0.74,0.78-1.39,1.34-1.96c0.57-0.57,1.23-1.04,2.01-1.41c0.77-0.37,1.61-0.57,2.51-0.59c0-0.53-0.05-1.04-0.15-1.54
				c-0.1-0.5-0.21-0.99-0.32-1.46c-0.11-0.47-0.22-0.93-0.32-1.38c-0.1-0.45-0.15-0.9-0.15-1.34c0-0.57,0.11-1.13,0.34-1.7
				c0.23-0.57,0.53-1.09,0.9-1.58c0.37-0.48,0.8-0.9,1.3-1.26c0.49-0.35,1.01-0.6,1.54-0.75c0.23,0.05,0.53,0.23,0.91,0.52
				c0.38,0.29,0.76,0.62,1.13,0.98c0.37,0.36,0.7,0.73,0.99,1.11C25.83,36.65,26.05,36.99,26.07,37.21z M15.88,51.88
				c0.49-0.22,0.96-0.54,1.4-0.95c0.44-0.41,0.83-0.87,1.16-1.38s0.59-1.05,0.79-1.63c0.2-0.57,0.29-1.13,0.29-1.68
				c-0.41,0.08-0.86,0.28-1.36,0.62c-0.49,0.34-0.96,0.74-1.39,1.2c-0.43,0.46-0.79,0.94-1.08,1.43c-0.29,0.49-0.43,0.91-0.43,1.27
				C15.27,51.23,15.47,51.6,15.88,51.88z"/>
			<path class="st4" d="M34.48,48.69c-0.39-0.31-0.65-0.72-0.79-1.22c-0.13-0.5-0.2-0.92-0.2-1.28c0-0.44,0.05-0.82,0.15-1.14
				c-0.08,0-0.27,0.18-0.56,0.53c-0.29,0.35-0.6,0.76-0.94,1.24c-0.34,0.48-0.67,0.94-1,1.4c-0.33,0.45-0.58,0.79-0.74,1.01
				c-0.27,0.31-0.52,0.55-0.76,0.72c-0.24,0.18-0.44,0.29-0.57,0.31c-0.3,0.04-0.67-0.03-1.03-0.13c-0.36-0.1-0.7-0.25-1.02-0.45
				c-0.32-0.2-0.6-0.44-0.83-0.72c-0.24-0.29-0.44-0.65-0.48-0.99c-0.06-0.52,0.02-1.07,0.05-1.45c0.03-0.38,0.1-0.79,0.2-1.23
				c0.19-0.8,0.46-1.72,0.82-2.74c0.36-1.02,0.78-2.03,1.25-3.02c0.47-0.99,1-1.93,1.59-2.81c0.59-0.88,1.21-1.57,1.87-2.08
				c0.18-0.01,0.4,0,0.65,0.02c0.25,0.02,0.5,0.06,0.76,0.14c0.26,0.07,0.5,0.16,0.74,0.26c0.24,0.1,0.44,0.24,0.6,0.42
				c-0.19,0.22-0.65,0.95-1.4,2.18c-0.75,1.23-1.59,2.99-2.51,5.27c-0.1,0.24-0.23,0.58-0.37,1.02c-0.14,0.45-0.29,0.92-0.43,1.4
				c-0.14,0.49-0.26,0.96-0.35,1.43c-0.09,0.47-0.14,0.83-0.14,1.11c0,0.17,0.03,0.29,0.08,0.37c0.05,0.08,0.1,0.14,0.14,0.18
				c0.31-0.14,0.7-0.5,1.17-1.09c0.47-0.59,1.13-1.49,1.97-2.7c0.21-0.3,0.45-0.65,0.73-1.04c0.28-0.39,0.56-0.81,0.85-1.25
				c0.29-0.44,0.56-0.9,0.82-1.38c0.26-0.47,0.47-0.95,0.63-1.42c0.08-0.26,0.19-0.56,0.32-0.91c0.13-0.35,0.3-0.72,0.49-1.11
				c0.2-0.39,0.42-0.78,0.68-1.18c0.26-0.4,0.56-0.78,0.91-1.13c0.27-0.02,0.56,0,0.86,0.04c0.31,0.05,0.6,0.11,0.88,0.19
				c0.28,0.08,0.52,0.17,0.72,0.27c0.21,0.1,0.36,0.21,0.46,0.33c-0.37,0.94-0.78,1.88-1.23,2.81c-0.45,0.93-0.87,1.84-1.26,2.73
				c-0.39,0.89-0.72,1.77-0.99,2.65c-0.27,0.87-0.4,1.72-0.4,2.54c0,0.44,0.04,0.82,0.11,1.14c0.07,0.32,0.15,0.59,0.23,0.8
				s0.16,0.39,0.23,0.54c0.07,0.14,0.11,0.27,0.11,0.37c0,0.02-0.02,0.05-0.06,0.1c-0.02,0.02-0.04,0.03-0.06,0.03
				c-0.14,0.01-0.33-0.01-0.56-0.06c-0.23-0.05-0.48-0.13-0.76-0.23c-0.28-0.1-0.56-0.22-0.83-0.35
				C34.99,48.99,34.73,48.85,34.48,48.69z"/>
			<path class="st4" d="M51.7,35.61c0.21-0.01,0.45,0,0.72,0.06c0.28,0.05,0.53,0.13,0.76,0.23c0.23,0.1,0.42,0.2,0.57,0.32
				s0.23,0.22,0.23,0.33c-0.41,0.91-0.79,1.82-1.14,2.74c-0.35,0.92-0.65,1.79-0.89,2.63c-0.25,0.84-0.44,1.61-0.57,2.34
				c-0.13,0.72-0.2,1.35-0.2,1.87c0,0.59,0.06,1.07,0.19,1.45c0.12,0.38,0.33,0.64,0.62,0.79c-0.25,0.19-0.57,0.34-0.96,0.48
				c-0.39,0.13-0.74,0.21-1.05,0.23c-1.11,0.08-1.67-0.66-1.67-2.21c0-1.19,0.39-2.86,1.17-4.98c-0.41,0.99-0.88,1.93-1.42,2.81
				c-0.53,0.88-1.08,1.66-1.64,2.35c-0.56,0.68-1.12,1.25-1.68,1.69c-0.57,0.44-1.12,0.77-1.56,0.83c-0.69,0.1-1.38-0.27-1.85-0.94
				c-0.47-0.68-0.71-1.56-0.71-2.66c0-1.18,0.25-2.43,0.74-3.77c0.49-1.33,1.13-2.58,1.9-3.75c0.77-1.16,1.61-2.15,2.52-2.96
				c0.91-0.81,1.91-1.35,2.62-1.3c0.18,0.01,0.44,0.16,0.69,0.33c0.26,0.17,0.5,0.37,0.74,0.61c0.24,0.23,0.44,0.48,0.6,0.73
				c0.16,0.25,0.26,0.47,0.28,0.65c-0.82,0.18-1.67,0.65-2.55,1.4s-1.67,1.63-2.38,2.65c-0.71,1.02-1.29,2.1-1.74,3.23
				c-0.45,1.14-0.68,2.19-0.68,3.15c0,0.4,0.14,0.64,0.43,0.73c0.6-0.16,1.29-0.73,2.07-1.69c0.78-0.96,1.73-2.44,2.84-4.42
				c0.21-0.39,0.44-0.83,0.7-1.31c0.26-0.48,0.52-0.98,0.79-1.5c0.27-0.52,0.53-1.05,0.79-1.58C51.23,36.62,51.48,36.11,51.7,35.61z
				"/>
			<path class="st4" d="M55.07,46.05c0-0.92,0.22-2.23,0.65-3.93c0.43-1.7,1.03-3.7,1.82-5.97c1.26-3.63,2.47-6.69,3.6-9.14
				c1.12-2.45,2.22-4.38,3.29-5.79c0.25,0.02,0.55,0.1,0.91,0.24c0.36,0.14,0.71,0.29,1.06,0.46c0.35,0.17,0.66,0.35,0.94,0.53
				c0.28,0.18,0.46,0.34,0.54,0.46c-1.6,2.07-3.01,4.27-4.23,6.59c-1.21,2.32-2.33,4.96-3.33,7.92c-0.87,2.54-1.52,4.82-1.97,6.84
				c-0.45,2.02-0.68,3.68-0.68,5c0,0.36,0,0.58,0,0.66s0.01,0.17,0.03,0.25c-0.29-0.02-0.53-0.07-0.74-0.16
				c-0.21-0.09-0.34-0.21-0.4-0.35c-0.04-0.1-0.15-0.24-0.34-0.43c-0.19-0.18-0.35-0.33-0.49-0.42c-0.18-0.11-0.34-0.43-0.46-0.95
				C55.13,47.32,55.07,46.72,55.07,46.05z"/>
			<path class="st4" d="M62.15,45.48c0-0.92,0.22-2.23,0.65-3.94c0.43-1.7,1.03-3.71,1.82-5.99c1.26-3.64,2.47-6.71,3.59-9.16
				c1.12-2.46,2.22-4.4,3.29-5.81c0.25,0.02,0.55,0.1,0.91,0.23c0.36,0.13,0.71,0.28,1.06,0.45c0.35,0.17,0.66,0.34,0.94,0.52
				c0.28,0.18,0.46,0.33,0.54,0.45c-1.6,2.08-3.01,4.29-4.23,6.62c-1.21,2.33-2.33,4.98-3.33,7.94c-0.87,2.55-1.52,4.83-1.98,6.85
				c-0.45,2.02-0.68,3.69-0.68,5.01c0,0.36,0,0.58,0,0.66c0,0.08,0.01,0.17,0.03,0.25c-0.29-0.02-0.53-0.07-0.74-0.16
				c-0.21-0.09-0.34-0.2-0.4-0.34c-0.04-0.1-0.15-0.24-0.34-0.43s-0.35-0.32-0.49-0.41c-0.18-0.11-0.34-0.43-0.46-0.95
				C62.22,46.75,62.15,46.15,62.15,45.48z"/>
			<path class="st4" d="M80.93,40.89c-0.48,1.57-0.95,3.02-1.42,4.32c-0.47,1.3-0.98,2.51-1.51,3.62c-0.53,1.11-1.11,2.14-1.73,3.09
				c-0.62,0.95-1.3,1.86-2.04,2.72c-0.94,1.09-1.92,1.96-2.93,2.58c-1.01,0.63-2.02,0.98-3.02,1.07c-0.51,0.05-1.02,0.03-1.53-0.04
				c-0.5-0.07-0.98-0.19-1.42-0.35s-0.83-0.36-1.17-0.59c-0.34-0.23-0.58-0.49-0.73-0.77c0-0.25,0.14-0.48,0.43-0.7
				c0.25,0.21,0.45,0.37,0.62,0.48c0.17,0.11,0.32,0.2,0.48,0.27c0.15,0.07,0.32,0.11,0.49,0.11c0.17,0.01,0.38,0,0.6-0.02
				c1.17-0.1,2.32-0.56,3.44-1.36s2.18-1.9,3.18-3.28c1-1.38,1.91-3.03,2.73-4.94c0.82-1.91,1.52-4.03,2.1-6.35
				c-0.27,0.44-0.6,0.99-0.99,1.63c-0.39,0.64-0.82,1.29-1.3,1.93c-0.47,0.64-0.96,1.23-1.47,1.75c-0.5,0.53-0.99,0.9-1.47,1.11
				c-0.33,0.03-0.68,0-1.03-0.08c-0.36-0.08-0.7-0.22-1.02-0.4c-0.32-0.18-0.6-0.41-0.85-0.68c-0.25-0.27-0.46-0.63-0.49-0.97
				c-0.06-0.54,0.02-1.1,0.06-1.47c0.04-0.37,0.11-0.78,0.22-1.23c0.18-0.81,0.46-1.74,0.82-2.78c0.36-1.04,0.78-2.07,1.27-3.09
				c0.48-1.02,1.02-1.98,1.6-2.88c0.59-0.9,1.2-1.63,1.84-2.17c0.16-0.02,0.37-0.02,0.62-0.01c0.25,0.01,0.5,0.04,0.77,0.1
				c0.27,0.06,0.52,0.13,0.77,0.22c0.25,0.09,0.46,0.22,0.65,0.39c-0.23,0.23-0.72,0.98-1.48,2.25c-0.76,1.27-1.6,3.07-2.53,5.39
				c-0.1,0.24-0.23,0.59-0.37,1.04c-0.14,0.45-0.28,0.93-0.42,1.42c-0.13,0.49-0.25,0.98-0.36,1.45c-0.1,0.47-0.15,0.84-0.15,1.11
				c0,0.17,0.03,0.29,0.08,0.37c0.05,0.08,0.1,0.14,0.14,0.18c0.37-0.1,0.86-0.45,1.48-1.07c0.62-0.61,1.32-1.54,2.1-2.79
				c0.49-0.8,0.95-1.59,1.36-2.38c0.41-0.78,0.82-1.57,1.22-2.37c0.4-0.79,0.82-1.61,1.25-2.45c0.43-0.84,0.89-1.7,1.39-2.59
				c0.27-0.03,0.56-0.03,0.86,0.01c0.31,0.03,0.61,0.08,0.9,0.15c0.29,0.06,0.54,0.14,0.76,0.24c0.22,0.09,0.38,0.2,0.48,0.31
				c-0.64,1.45-1.23,2.86-1.79,4.24C81.85,38.06,81.36,39.47,80.93,40.89z"/>
			<path class="st4" d="M92.04,43.32c0-0.42,0.05-1.01,0.14-1.77c0.09-0.76,0.22-1.59,0.37-2.49c0.15-0.9,0.33-1.82,0.52-2.76
				c0.2-0.94,0.4-1.79,0.6-2.55c0.27-1.01,0.68-1.82,1.25-2.42c0.57-0.6,1.27-0.94,2.11-1.04c0.45-0.05,0.9-0.03,1.34,0.07
				c0.44,0.1,0.7,0.26,0.79,0.48c-0.6,0.57-1.08,1.25-1.44,2.03c-0.36,0.78-0.65,1.61-0.86,2.48c-0.22,0.87-0.38,1.76-0.49,2.66
				c-0.11,0.9-0.23,1.75-0.35,2.54c0.68-1,1.32-1.9,1.93-2.71c0.61-0.81,1.15-1.46,1.62-1.96c0.64-0.67,1.07-1.24,1.3-1.67
				c0.23-0.43,0.43-0.9,0.59-1.4c0.13-0.39,0.27-0.85,0.45-1.37c0.18-0.52,0.47-1.02,0.88-1.48c0.08-0.03,0.26-0.06,0.52-0.09
				c0.21-0.02,0.43-0.04,0.66-0.05c0.24-0.01,0.46,0.01,0.66,0.05c0.21,0.04,0.38,0.09,0.52,0.16c0.14,0.07,0.23,0.16,0.25,0.29
				c-0.33,0.48-0.64,1.2-0.93,2.17c-0.29,0.97-0.55,2.02-0.77,3.15c-0.23,1.14-0.43,2.27-0.62,3.39c-0.19,1.12-0.35,2.07-0.49,2.84
				c0.08-0.05,0.27-0.24,0.55-0.57c0.29-0.33,0.61-0.73,0.97-1.21c0.36-0.48,0.74-1.01,1.14-1.58s0.75-1.13,1.06-1.66
				c0.38-0.65,0.72-1.26,0.97-1.83c0.26-0.56,0.48-1.16,0.68-1.79c0.2-0.63,0.38-1.33,0.54-2.09c0.16-0.76,0.34-1.67,0.52-2.72
				c0.12-0.18,0.4-0.36,0.82-0.52c0.42-0.16,0.81-0.27,1.16-0.31c0.31-0.04,0.53-0.01,0.68,0.08c-0.1,1.19-0.29,2.26-0.57,3.21
				c-0.28,0.95-0.65,1.9-1.13,2.82c-0.47,0.93-1.06,1.87-1.76,2.82c-0.7,0.95-1.52,2-2.47,3.13c-0.39,0.46-0.82,0.97-1.28,1.53
				c-0.46,0.56-0.92,1.08-1.36,1.55c-0.44,0.48-0.85,0.89-1.23,1.23c-0.38,0.34-0.67,0.52-0.88,0.54c-0.47,0.05-0.86-0.09-1.17-0.43
				c-0.31-0.34-0.46-0.81-0.46-1.39c0-0.61,0.03-1.14,0.08-1.6c0.05-0.46,0.13-0.95,0.26-1.46c0.12-0.47,0.22-0.87,0.29-1.2
				c0.07-0.32,0.13-0.6,0.19-0.84s0.09-0.44,0.11-0.61c0.02-0.17,0.04-0.34,0.06-0.51c-0.16,0.1-0.38,0.3-0.65,0.59
				c-0.27,0.29-0.54,0.63-0.83,1.01c-0.29,0.38-0.58,0.76-0.86,1.15c-0.29,0.39-0.52,0.72-0.71,0.99c-0.39,0.59-0.73,1.11-1.02,1.56
				c-0.29,0.45-0.56,0.88-0.82,1.28c-0.26,0.41-0.51,0.82-0.76,1.23c-0.25,0.41-0.53,0.86-0.86,1.34c-0.66-0.14-1.13-0.4-1.4-0.79
				C92.17,44.42,92.04,43.93,92.04,43.32z"/>
			<path class="st4" d="M122.06,28.1c-0.08,1.31-0.31,2.45-0.68,3.43c-0.37,0.98-0.9,1.86-1.59,2.65c-0.69,0.79-1.53,1.52-2.51,2.21
				c-0.99,0.69-2.14,1.37-3.46,2.05c0,0.13,0,0.26-0.02,0.39c-0.01,0.14-0.02,0.28-0.02,0.43c0,0.27,0.02,0.55,0.06,0.84
				c0.04,0.29,0.11,0.55,0.22,0.79c0.1,0.24,0.25,0.43,0.43,0.56c0.19,0.13,0.42,0.18,0.71,0.15c0.55-0.07,1.1-0.26,1.63-0.57
				c0.53-0.32,1.04-0.69,1.53-1.11c0.48-0.42,0.94-0.88,1.36-1.36c0.42-0.48,0.8-0.92,1.13-1.32c0.21,0.16,0.38,0.32,0.52,0.47
				c-0.93,1.37-1.94,2.54-3.04,3.5c-1.1,0.96-2.14,1.62-3.13,1.97c-1.42,0-2.53-0.39-3.32-1.19c-0.79-0.8-1.19-1.82-1.19-3.08
				c0-0.86,0.12-1.75,0.35-2.67s0.57-1.82,0.99-2.69c0.42-0.88,0.92-1.72,1.48-2.52s1.17-1.51,1.82-2.14
				c0.65-0.62,1.32-1.13,2.01-1.53c0.69-0.4,1.41-0.69,2.05-0.72C120.29,26.59,121.24,27.13,122.06,28.1z M119.93,29.4
				c-0.55,0.15-1.13,0.45-1.73,0.9c-0.6,0.45-1.16,1.02-1.68,1.71c-0.52,0.69-1,1.48-1.43,2.37c-0.43,0.89-0.77,1.83-1.02,2.83
				c1.65-1.04,3.01-2.23,4.1-3.59C119.26,32.26,119.85,30.86,119.93,29.4z"/>
			<path class="st4" d="M133.94,26.94c0.21-0.03,0.45-0.02,0.72,0.02c0.28,0.04,0.53,0.1,0.76,0.19c0.23,0.09,0.42,0.18,0.57,0.29
				c0.15,0.11,0.23,0.21,0.23,0.32c-0.41,0.93-0.79,1.87-1.14,2.8c-0.35,0.93-0.65,1.83-0.89,2.67c-0.25,0.85-0.44,1.64-0.57,2.37
				c-0.13,0.73-0.2,1.36-0.2,1.88c0,0.59,0.06,1.07,0.19,1.44c0.12,0.37,0.33,0.62,0.62,0.76c-0.25,0.2-0.57,0.37-0.96,0.53
				c-0.39,0.15-0.74,0.25-1.05,0.29c-1.11,0.14-1.67-0.57-1.67-2.12c0-1.19,0.39-2.88,1.17-5.05c-0.41,1.01-0.88,1.97-1.42,2.88
				c-0.53,0.91-1.08,1.73-1.64,2.44c-0.56,0.72-1.12,1.31-1.68,1.79s-1.12,0.84-1.56,0.93c-0.69,0.14-1.38-0.18-1.85-0.83
				c-0.47-0.65-0.71-1.52-0.71-2.61c0-1.18,0.25-2.45,0.74-3.82c0.49-1.37,1.13-2.65,1.9-3.86c0.77-1.21,1.61-2.25,2.52-3.11
				c0.91-0.86,1.9-1.47,2.62-1.45c0.18,0,0.44,0.13,0.69,0.29c0.26,0.16,0.5,0.35,0.74,0.57c0.24,0.22,0.44,0.45,0.6,0.69
				c0.16,0.24,0.26,0.45,0.28,0.64c-0.82,0.23-1.67,0.74-2.55,1.54c-0.87,0.8-1.67,1.73-2.38,2.79c-0.71,1.06-1.29,2.17-1.74,3.34
				c-0.45,1.16-0.68,2.23-0.68,3.19c0,0.4,0.14,0.63,0.43,0.7c0.6-0.2,1.29-0.8,2.07-1.81c0.78-1.01,1.73-2.54,2.84-4.58
				c0.21-0.4,0.44-0.85,0.7-1.34c0.26-0.49,0.52-1.01,0.79-1.54c0.27-0.54,0.53-1.08,0.79-1.62
				C133.47,27.98,133.71,27.45,133.94,26.94z"/>
			<path class="st4" d="M136.65,38.67c0.1-0.62,0.28-1.44,0.54-2.47c0.26-1.03,0.56-2.12,0.91-3.29s0.72-2.34,1.11-3.52
				c0.39-1.18,0.77-2.25,1.14-3.19c0.27-0.68,0.5-1.22,0.71-1.61c0.21-0.39,0.43-0.73,0.68-1.01c0.29,0.01,0.59,0.04,0.9,0.11
				c0.31,0.07,0.61,0.15,0.89,0.26c0.29,0.11,0.55,0.23,0.77,0.36c0.23,0.13,0.4,0.26,0.52,0.39c-0.56,0.74-1.04,1.57-1.47,2.48
				c-0.42,0.91-0.85,2.07-1.28,3.46c1.11-1.15,2.09-2.24,2.95-3.27c0.85-1.03,1.65-2.16,2.39-3.38c0.12-0.12,0.34-0.2,0.65-0.24
				c0.29-0.04,0.57-0.03,0.83,0.04c0.27,0.06,0.45,0.17,0.55,0.32c-0.37,1.05-0.55,2.07-0.55,3.06c0,0.92,0.13,1.6,0.4,2.02
				c-0.02,0.13-0.16,0.39-0.42,0.78c-0.26,0.39-0.54,0.76-0.85,1.11c-0.56-0.22-1.05-0.56-1.48-1.02c-0.43-0.46-0.75-0.98-0.96-1.56
				c-0.97,0.82-1.79,1.6-2.47,2.34c-0.68,0.75-1.26,1.55-1.74,2.42s-0.89,1.85-1.23,2.94s-0.66,2.38-0.97,3.86
				c-0.18,0-0.41-0.04-0.66-0.12c-0.26-0.08-0.51-0.19-0.77-0.33c-0.26-0.14-0.49-0.29-0.69-0.45
				C136.85,38.99,136.72,38.83,136.65,38.67z"/>
			<path class="st4" d="M160.2,23.75c0.03,0.34-0.09,0.82-0.2,1.27c-0.11,0.44-0.25,0.85-0.42,1.22c-0.16,0.37-0.34,0.68-0.52,0.93
				c-0.18,0.25-0.37,0.4-0.53,0.41c-0.22,0.02-0.36-0.13-0.4-0.42c0-0.06,0.03-0.17,0.08-0.31c0.05-0.14,0.11-0.3,0.17-0.48
				c0.06-0.18,0.12-0.35,0.17-0.52c0.05-0.17,0.08-0.32,0.08-0.45c0-0.29-0.07-0.53-0.2-0.71c-0.13-0.18-0.31-0.26-0.54-0.23
				c-0.82,0.1-1.45,0.71-1.88,1.8c-0.43,1.1-0.65,2.66-0.65,4.68c0,0.21,0.02,0.36,0.03,0.37c0.16,0.09,0.82-0.1,1.16-0.15
				s0.89-0.19,1-0.13c0.02,0.01,0.03,0.12,0.03,0.25c0,0.19-0.04,0.33-0.12,0.42c-0.47,0.16-0.85,0.3-1.13,0.41s-0.49,0.2-0.63,0.28
				c-0.14,0.08-0.23,0.16-0.26,0.24c-0.03,0.08-0.05,0.18-0.05,0.3c0,0.17,0.01,0.33,0.02,0.5s0.02,0.37,0.02,0.62
				c0,1.75-0.47,3.22-1.4,4.41c-0.94,1.19-2.24,1.97-3.9,2.35c-0.29,0.02-0.59-0.03-0.89-0.14c-0.31-0.11-0.6-0.26-0.88-0.45
				c-0.28-0.2-0.52-0.42-0.73-0.68c-0.21-0.26-0.4-0.56-0.43-0.81c-0.1-0.68,0.16-1.59,0.49-2.36c0.33-0.77,0.78-1.47,1.34-2.1
				c0.57-0.63,1.23-1.17,2.01-1.62c0.77-0.45,1.61-0.73,2.51-0.84c0-0.53-0.05-1.03-0.15-1.53s-0.21-0.97-0.32-1.43
				c-0.11-0.46-0.22-0.91-0.32-1.35c-0.1-0.44-0.15-0.88-0.15-1.32c0-0.57,0.11-1.15,0.34-1.73c0.23-0.59,0.53-1.14,0.9-1.66
				c0.37-0.52,0.8-0.98,1.3-1.38c0.49-0.4,1.01-0.7,1.54-0.89c0.23,0.03,0.53,0.18,0.91,0.43c0.38,0.25,0.76,0.55,1.13,0.88
				c0.37,0.33,0.7,0.67,0.99,1.02C159.96,23.21,160.17,23.54,160.2,23.75z M150.01,39.38c0.49-0.27,0.96-0.64,1.4-1.09
				c0.44-0.45,0.83-0.95,1.16-1.5c0.33-0.54,0.59-1.11,0.79-1.7c0.2-0.59,0.29-1.16,0.29-1.7c-0.41,0.11-0.86,0.37-1.36,0.75
				c-0.49,0.39-0.96,0.83-1.39,1.34c-0.43,0.51-0.79,1.02-1.08,1.54c-0.29,0.52-0.43,0.96-0.43,1.31
				C149.4,38.79,149.6,39.14,150.01,39.38z"/>
			<path class="st4" d="M178.22,21.5c0.03,0.34-0.09,0.82-0.2,1.27c-0.11,0.44-0.25,0.85-0.42,1.21c-0.16,0.37-0.34,0.68-0.52,0.93
				c-0.18,0.25-0.37,0.4-0.53,0.41c-0.22,0.02-0.36-0.13-0.4-0.42c0-0.06,0.03-0.17,0.08-0.31c0.05-0.14,0.11-0.3,0.17-0.48
				c0.06-0.18,0.12-0.35,0.17-0.52c0.05-0.17,0.08-0.32,0.08-0.45c0-0.29-0.07-0.53-0.2-0.71c-0.13-0.18-0.31-0.26-0.54-0.23
				c-0.82,0.1-1.45,0.7-1.88,1.8c-0.43,1.1-0.65,2.66-0.65,4.68c0,0.21,0.02,0.36,0.03,0.37c0.16,0.09,0.82-0.1,1.16-0.14
				c0.34-0.04,0.88-0.19,1-0.12c0.02,0.01,0.03,0.12,0.03,0.25c0,0.19-0.04,0.33-0.12,0.42c-0.47,0.16-0.85,0.3-1.13,0.41
				c-0.28,0.11-0.49,0.2-0.63,0.28s-0.23,0.16-0.26,0.24c-0.03,0.08-0.05,0.18-0.05,0.3c0,0.17,0.01,0.33,0.02,0.5
				c0.01,0.17,0.02,0.37,0.02,0.62c0,1.75-0.47,3.22-1.4,4.4c-0.94,1.18-2.24,1.96-3.9,2.34c-0.29,0.02-0.59-0.03-0.89-0.14
				c-0.31-0.11-0.6-0.26-0.88-0.46c-0.28-0.2-0.52-0.42-0.73-0.68c-0.21-0.26-0.4-0.56-0.43-0.81c-0.1-0.68,0.16-1.59,0.49-2.36
				c0.33-0.77,0.78-1.47,1.34-2.1c0.57-0.63,1.23-1.17,2.01-1.61c0.77-0.44,1.61-0.72,2.51-0.84c0-0.53-0.05-1.03-0.15-1.53
				c-0.1-0.49-0.21-0.97-0.32-1.43c-0.11-0.46-0.22-0.91-0.32-1.35c-0.1-0.44-0.15-0.88-0.15-1.32c0-0.57,0.11-1.15,0.34-1.73
				c0.23-0.59,0.53-1.14,0.9-1.66c0.37-0.52,0.8-0.98,1.3-1.38c0.49-0.4,1.01-0.69,1.54-0.89c0.23,0.03,0.53,0.18,0.91,0.44
				c0.38,0.26,0.76,0.55,1.13,0.88c0.37,0.33,0.7,0.67,0.99,1.03C177.98,20.96,178.2,21.29,178.22,21.5z M168.03,37.1
				c0.49-0.27,0.96-0.63,1.4-1.09c0.44-0.45,0.83-0.95,1.16-1.5s0.59-1.11,0.79-1.7c0.2-0.59,0.29-1.16,0.29-1.7
				c-0.41,0.11-0.86,0.36-1.36,0.75c-0.49,0.39-0.96,0.83-1.39,1.34c-0.43,0.51-0.79,1.02-1.08,1.53c-0.29,0.52-0.43,0.96-0.43,1.31
				C167.42,36.51,167.62,36.86,168.03,37.1z"/>
			<path class="st4" d="M186.63,32.35c-0.39-0.29-0.65-0.68-0.79-1.16c-0.13-0.49-0.2-0.91-0.2-1.26c0-0.44,0.05-0.82,0.15-1.15
				c-0.08,0.01-0.27,0.2-0.56,0.57c-0.29,0.37-0.6,0.8-0.94,1.3c-0.34,0.5-0.67,0.99-1,1.47c-0.33,0.48-0.58,0.83-0.74,1.06
				c-0.27,0.33-0.52,0.59-0.76,0.78c-0.24,0.19-0.44,0.33-0.57,0.35c-0.3,0.06-0.67,0.02-1.03-0.05c-0.36-0.07-0.7-0.19-1.02-0.37
				c-0.32-0.17-0.6-0.39-0.83-0.66c-0.24-0.27-0.44-0.62-0.48-0.95c-0.06-0.52,0.02-1.07,0.05-1.45c0.03-0.38,0.1-0.8,0.2-1.25
				c0.19-0.82,0.46-1.75,0.82-2.8c0.36-1.05,0.78-2.09,1.25-3.12c0.47-1.03,1-2.01,1.59-2.93c0.59-0.92,1.21-1.66,1.87-2.22
				c0.19-0.02,0.4-0.03,0.65-0.03c0.25,0,0.5,0.03,0.76,0.08c0.26,0.05,0.5,0.12,0.74,0.21c0.24,0.09,0.44,0.21,0.6,0.38
				c-0.19,0.23-0.65,0.99-1.4,2.28c-0.75,1.28-1.59,3.1-2.51,5.46c-0.1,0.24-0.23,0.59-0.37,1.05c-0.14,0.46-0.29,0.94-0.43,1.44
				c-0.14,0.5-0.26,0.99-0.35,1.46c-0.09,0.47-0.14,0.84-0.14,1.12c0,0.17,0.03,0.29,0.08,0.37c0.05,0.08,0.1,0.13,0.14,0.17
				c0.31-0.16,0.7-0.56,1.17-1.18c0.47-0.62,1.13-1.57,1.97-2.85c0.21-0.32,0.45-0.68,0.73-1.09c0.28-0.41,0.56-0.85,0.85-1.31
				c0.29-0.46,0.56-0.94,0.82-1.43c0.26-0.49,0.47-0.98,0.63-1.46c0.08-0.26,0.19-0.57,0.32-0.93c0.13-0.36,0.3-0.74,0.49-1.14
				c0.2-0.4,0.42-0.81,0.68-1.23c0.26-0.42,0.56-0.82,0.91-1.19c0.27-0.03,0.55-0.03,0.86-0.01c0.31,0.03,0.6,0.07,0.88,0.13
				c0.28,0.06,0.52,0.14,0.72,0.23c0.21,0.09,0.36,0.19,0.46,0.31c-0.37,0.97-0.78,1.93-1.23,2.88c-0.45,0.95-0.87,1.89-1.26,2.81
				c-0.39,0.92-0.72,1.82-0.99,2.71c-0.27,0.89-0.4,1.74-0.4,2.56c0,0.44,0.04,0.82,0.11,1.13c0.07,0.32,0.15,0.58,0.23,0.79
				s0.16,0.38,0.23,0.52c0.07,0.14,0.11,0.26,0.11,0.36c0,0.02-0.02,0.06-0.06,0.1c-0.02,0.02-0.04,0.04-0.06,0.04
				c-0.14,0.02-0.33,0.01-0.56-0.03c-0.23-0.04-0.48-0.1-0.76-0.18c-0.28-0.08-0.56-0.18-0.83-0.29
				C187.14,32.61,186.88,32.49,186.63,32.35z"/>
			<path class="st4" d="M198.22,16.44c0.53,0.11,1.04,0.42,1.51,0.94c0.47,0.52,0.82,1.12,1.05,1.78c-0.23,0.59-0.58,1.31-1.05,2.16
				c-0.47,0.85-0.95,1.72-1.42,2.6c-0.47,0.88-0.9,1.72-1.28,2.5c-0.38,0.79-0.6,1.43-0.66,1.92c0.33-0.39,0.69-0.85,1.1-1.37
				c0.4-0.52,0.79-1.03,1.17-1.55s0.74-0.98,1.06-1.41c0.33-0.42,0.59-0.74,0.77-0.95c0.39-0.46,0.85-1,1.39-1.62
				c0.54-0.62,1.1-1.2,1.68-1.76c0.59-0.56,1.18-1.04,1.77-1.45c0.6-0.41,1.14-0.64,1.64-0.7c0.53-0.06,0.98,0.08,1.34,0.4
				c0.36,0.33,0.64,0.68,0.85,1.06c0,0.04-0.08,0.11-0.23,0.2c-0.15,0.09-0.39,0.32-0.66,0.68c-0.29,0.39-0.61,0.96-0.97,1.66
				c-0.36,0.7-0.71,1.45-1.05,2.25c-0.34,0.8-0.62,1.61-0.85,2.43c-0.23,0.82-0.34,1.56-0.34,2.21c0,0.52,0.07,0.85,0.2,0.98
				c0.13,0.13,0.32,0.19,0.57,0.16c0.23-0.02,0.46-0.1,0.71-0.23c0.25-0.13,0.48-0.24,0.59-0.22c0.07,0.01,0.15,0.11,0.2,0.24
				c0.05,0.13,0.08,0.25,0.08,0.35c-0.17,0.17-0.36,0.33-0.59,0.5c-0.23,0.17-0.46,0.33-0.71,0.49c-0.25,0.15-0.49,0.28-0.72,0.39
				c-0.24,0.11-0.45,0.18-0.63,0.2c-0.6,0.07-1.09,0.03-1.47-0.11c-0.38-0.14-0.68-0.34-0.89-0.61c-0.22-0.27-0.37-0.6-0.45-1
				c-0.08-0.4-0.12-0.83-0.12-1.29c0-0.25,0.02-0.54,0.06-0.86c0.04-0.32,0.12-0.7,0.25-1.14c0.12-0.44,0.3-0.98,0.52-1.6
				c0.23-0.62,0.51-1.37,0.86-2.25c-0.04,0-0.32,0.18-0.83,0.53c-0.51,0.35-1.07,0.86-1.67,1.54c-0.97,1.05-1.84,2.08-2.61,3.09
				c-0.77,1.01-1.56,2.13-2.36,3.35c-0.45,0.7-0.85,1.3-1.19,1.79c-0.34,0.49-0.63,0.82-0.88,1c-0.43-0.2-0.75-0.51-0.96-0.94
				c-0.21-0.43-0.42-0.92-0.46-1.34c-0.04-0.35,0.06-0.91,0.17-1.53c0.11-0.62,0.27-1.31,0.46-2.08s0.44-1.58,0.72-2.43
				c0.29-0.85,0.61-1.71,0.96-2.56c0.78-1.93,1.5-3.46,2.14-4.59C197.65,17.15,198.05,16.54,198.22,16.44z"/>
			<path class="st4" d="M220.94,16.69c0.03,0.34-0.09,0.82-0.2,1.26c-0.11,0.44-0.25,0.84-0.42,1.2c-0.17,0.36-0.34,0.67-0.52,0.92
				s-0.37,0.39-0.53,0.4c-0.22,0.01-0.36-0.14-0.4-0.43c0-0.06,0.03-0.16,0.08-0.31c0.05-0.14,0.11-0.3,0.17-0.47
				c0.06-0.17,0.12-0.35,0.17-0.52c0.05-0.17,0.08-0.32,0.08-0.45c0-0.29-0.07-0.53-0.2-0.72c-0.13-0.19-0.31-0.27-0.54-0.24
				c-0.82,0.08-1.45,0.67-1.88,1.76c-0.43,1.09-0.65,2.64-0.65,4.66c0,0.21,0.01,0.36,0.03,0.37c0.16,0.09,0.82-0.08,1.16-0.12
				s0.88-0.17,1-0.1c0.02,0.01,0.03,0.12,0.03,0.25c0,0.19-0.04,0.33-0.12,0.42c-0.47,0.15-0.85,0.28-1.13,0.38
				s-0.49,0.19-0.63,0.27c-0.14,0.08-0.23,0.15-0.26,0.23c-0.03,0.08-0.05,0.18-0.05,0.3c0,0.17,0.01,0.33,0.02,0.5
				c0.01,0.17,0.02,0.37,0.02,0.62c0,1.75-0.47,3.21-1.4,4.37s-2.24,1.92-3.9,2.26c-0.29,0.01-0.59-0.04-0.89-0.16
				c-0.31-0.11-0.6-0.27-0.88-0.47c-0.28-0.2-0.52-0.43-0.73-0.69c-0.21-0.26-0.4-0.57-0.43-0.82c-0.1-0.68,0.16-1.59,0.49-2.35
				c0.33-0.76,0.78-1.46,1.34-2.08c0.57-0.62,1.23-1.15,2.01-1.58c0.77-0.43,1.61-0.69,2.51-0.79c0-0.53-0.05-1.04-0.15-1.53
				c-0.1-0.49-0.21-0.97-0.32-1.44c-0.11-0.46-0.22-0.91-0.32-1.35c-0.1-0.44-0.15-0.88-0.15-1.33c0-0.57,0.11-1.14,0.34-1.72
				c0.23-0.58,0.53-1.13,0.9-1.64c0.37-0.51,0.8-0.96,1.3-1.35c0.49-0.39,1.01-0.67,1.54-0.85c0.23,0.04,0.53,0.19,0.91,0.46
				c0.38,0.26,0.76,0.57,1.13,0.91c0.37,0.34,0.7,0.69,0.99,1.05C220.7,16.15,220.91,16.48,220.94,16.69z M210.75,32.08
				c0.49-0.26,0.96-0.62,1.4-1.06c0.44-0.45,0.83-0.94,1.16-1.47s0.59-1.1,0.79-1.68c0.2-0.59,0.29-1.15,0.29-1.7
				c-0.41,0.11-0.86,0.35-1.36,0.72c-0.49,0.38-0.96,0.81-1.39,1.31c-0.43,0.5-0.79,1-1.08,1.51c-0.29,0.51-0.43,0.95-0.43,1.3
				C210.13,31.47,210.34,31.83,210.75,32.08z"/>
			<path class="st4" d="M221.07,23.71c0-1.19,0.24-2.38,0.73-3.55c0.48-1.17,1.12-2.23,1.91-3.17c0.79-0.95,1.7-1.74,2.72-2.37
				c1.02-0.63,2.07-1,3.16-1.1c1.07-0.1,1.89,0.1,2.47,0.59c0.58,0.49,0.86,1.24,0.86,2.25c0,0.48-0.07,0.95-0.2,1.42
				c-0.13,0.46-0.31,0.88-0.52,1.26c-0.22,0.38-0.47,0.69-0.76,0.93c-0.29,0.25-0.58,0.38-0.86,0.41c-0.25,0.02-0.5-0.03-0.76-0.17
				c-0.26-0.13-0.47-0.32-0.63-0.55c1.38-1.41,2.07-2.63,2.07-3.68c0-0.61-0.24-0.89-0.71-0.85c-0.41,0.04-0.93,0.28-1.54,0.74
				c-0.62,0.46-1.21,1.04-1.79,1.74c-0.88,1.09-1.56,2.27-2.02,3.54c-0.46,1.27-0.69,2.58-0.69,3.92c0,1.7,0.37,2.68,1.11,2.94
				c0.31-0.07,0.67-0.2,1.08-0.38c0.41-0.19,0.85-0.42,1.33-0.71c0.47-0.28,0.96-0.61,1.47-0.97c0.5-0.36,0.99-0.74,1.47-1.14
				c0.08,0.06,0.15,0.14,0.22,0.26c0.06,0.12,0.09,0.23,0.09,0.34c-0.35,0.47-0.75,0.94-1.2,1.4c-0.45,0.46-0.93,0.89-1.42,1.28
				c-0.49,0.39-0.97,0.73-1.44,1.01c-0.46,0.28-0.91,0.53-1.22,0.57c-0.58,0.08-1.32-0.15-1.91-0.46c-0.6-0.31-1.12-0.74-1.56-1.28
				s-0.79-1.18-1.05-1.91C221.2,25.3,221.07,24.52,221.07,23.71z"/>
			<path class="st4" d="M233.05,27.49c0.1-0.62,0.28-1.43,0.54-2.45c0.26-1.02,0.56-2.1,0.91-3.25s0.72-2.31,1.11-3.48
				s0.77-2.21,1.14-3.15c0.27-0.67,0.5-1.2,0.71-1.58c0.21-0.38,0.43-0.71,0.68-0.98c0.29,0.02,0.59,0.07,0.9,0.15
				c0.31,0.08,0.61,0.18,0.89,0.3c0.29,0.12,0.55,0.25,0.77,0.39c0.23,0.14,0.4,0.28,0.52,0.41c-0.56,0.72-1.04,1.52-1.47,2.41
				c-0.42,0.89-0.85,2.03-1.28,3.41c1.11-1.1,2.09-2.14,2.95-3.13s1.65-2.08,2.39-3.27c0.12-0.11,0.34-0.18,0.65-0.21
				c0.29-0.02,0.57,0,0.83,0.08c0.27,0.07,0.45,0.19,0.56,0.35c-0.37,1.03-0.56,2.04-0.56,3.03c0,0.92,0.13,1.6,0.4,2.04
				c-0.02,0.13-0.16,0.38-0.42,0.76c-0.26,0.38-0.54,0.73-0.85,1.07c-0.56-0.25-1.05-0.62-1.48-1.1c-0.43-0.48-0.75-1.01-0.96-1.61
				c-0.97,0.77-1.79,1.51-2.47,2.23c-0.68,0.71-1.26,1.5-1.74,2.34s-0.89,1.81-1.23,2.89c-0.34,1.08-0.66,2.35-0.97,3.82
				c-0.19,0-0.41-0.05-0.66-0.15c-0.26-0.09-0.51-0.21-0.77-0.36c-0.26-0.15-0.49-0.3-0.69-0.47S233.11,27.65,233.05,27.49z"/>
			<path class="st4" d="M257.2,13.27c-0.08,1.3-0.31,2.43-0.68,3.39c-0.37,0.96-0.9,1.81-1.59,2.55c-0.69,0.75-1.53,1.44-2.51,2.07
				c-0.99,0.63-2.14,1.26-3.46,1.88c0,0.13,0,0.26-0.02,0.39c-0.01,0.14-0.02,0.28-0.02,0.43c0,0.27,0.02,0.55,0.06,0.84
				c0.04,0.29,0.11,0.56,0.22,0.8c0.1,0.24,0.25,0.44,0.43,0.58c0.19,0.14,0.42,0.21,0.71,0.18c0.56-0.04,1.1-0.2,1.63-0.49
				c0.53-0.29,1.04-0.63,1.53-1.03c0.48-0.4,0.94-0.83,1.36-1.28c0.42-0.46,0.8-0.87,1.13-1.25c0.21,0.18,0.38,0.34,0.52,0.5
				c-0.93,1.32-1.94,2.42-3.04,3.33c-1.1,0.9-2.14,1.5-3.13,1.8c-1.42-0.07-2.53-0.51-3.32-1.35c-0.79-0.83-1.19-1.88-1.19-3.13
				c0-0.86,0.12-1.74,0.35-2.65s0.57-1.79,0.99-2.65c0.42-0.86,0.92-1.68,1.48-2.45c0.57-0.77,1.17-1.46,1.82-2.05
				c0.65-0.59,1.32-1.07,2.01-1.43c0.69-0.36,1.42-0.61,2.05-0.61C255.43,11.65,256.38,12.25,257.2,13.27z M255.07,14.44
				c-0.56,0.12-1.13,0.39-1.73,0.81c-0.6,0.42-1.16,0.96-1.68,1.62c-0.52,0.67-1,1.43-1.43,2.3c-0.43,0.87-0.77,1.79-1.02,2.78
				c1.65-0.96,3.01-2.08,4.1-3.38C254.4,17.26,254.99,15.89,255.07,14.44z"/>
			<path class="st4" d="M269.51,12.59c-0.08,1.3-0.31,2.43-0.68,3.38c-0.37,0.95-0.9,1.79-1.59,2.53c-0.69,0.74-1.53,1.41-2.51,2.03
				c-0.99,0.62-2.14,1.23-3.46,1.83c0,0.13,0,0.26-0.02,0.39c-0.01,0.14-0.02,0.28-0.02,0.43c0,0.27,0.02,0.55,0.06,0.85
				c0.04,0.29,0.11,0.56,0.22,0.8c0.1,0.25,0.25,0.44,0.43,0.59c0.19,0.15,0.42,0.21,0.71,0.2c0.56-0.03,1.1-0.19,1.63-0.47
				c0.53-0.28,1.04-0.62,1.53-1.01c0.48-0.39,0.94-0.81,1.36-1.26c0.42-0.45,0.8-0.86,1.13-1.23c0.21,0.18,0.38,0.35,0.52,0.51
				c-0.93,1.3-1.94,2.39-3.04,3.28c-1.1,0.88-2.14,1.47-3.13,1.76c-1.42-0.09-2.53-0.55-3.32-1.39c-0.79-0.84-1.19-1.89-1.19-3.15
				c0-0.86,0.12-1.74,0.35-2.65c0.24-0.91,0.57-1.78,0.99-2.64c0.42-0.85,0.92-1.66,1.48-2.43c0.57-0.77,1.17-1.44,1.82-2.02
				c0.65-0.58,1.32-1.05,2.01-1.4c0.69-0.35,1.42-0.59,2.05-0.58C267.74,10.94,268.68,11.56,269.51,12.59z M267.38,13.73
				c-0.56,0.11-1.13,0.37-1.73,0.78c-0.6,0.41-1.16,0.94-1.68,1.6c-0.52,0.66-1,1.42-1.43,2.28c-0.43,0.86-0.77,1.78-1.02,2.76
				c1.65-0.93,3.01-2.04,4.1-3.32C266.71,16.55,267.3,15.18,267.38,13.73z"/>
			<path class="st4" d="M275.76,10.09c0.53,0.15,1.04,0.5,1.51,1.06c0.47,0.56,0.82,1.18,1.05,1.86c-0.23,0.57-0.58,1.27-1.05,2.08
				c-0.47,0.81-0.95,1.64-1.42,2.49c-0.47,0.85-0.9,1.65-1.28,2.41c-0.38,0.76-0.6,1.38-0.66,1.87c0.33-0.37,0.7-0.8,1.1-1.29
				c0.4-0.49,0.79-0.97,1.17-1.46s0.74-0.93,1.06-1.33c0.33-0.4,0.59-0.7,0.77-0.89c0.39-0.43,0.85-0.94,1.39-1.51
				c0.53-0.57,1.1-1.11,1.68-1.63c0.59-0.51,1.18-0.95,1.77-1.31c0.6-0.36,1.14-0.55,1.64-0.56c0.53-0.01,0.98,0.16,1.34,0.52
				c0.36,0.36,0.64,0.73,0.85,1.13c0,0.04-0.08,0.1-0.23,0.18s-0.39,0.29-0.66,0.63c-0.29,0.37-0.61,0.91-0.97,1.58
				c-0.36,0.67-0.71,1.39-1.05,2.16c-0.34,0.77-0.62,1.56-0.85,2.36c-0.23,0.8-0.34,1.53-0.34,2.18c0,0.52,0.07,0.86,0.2,1
				c0.13,0.14,0.32,0.21,0.57,0.2c0.23-0.01,0.46-0.06,0.71-0.18c0.25-0.11,0.48-0.2,0.59-0.17c0.07,0.01,0.15,0.13,0.2,0.26
				c0.05,0.14,0.08,0.25,0.08,0.36c-0.17,0.15-0.36,0.3-0.59,0.46c-0.23,0.15-0.46,0.29-0.71,0.43c-0.25,0.13-0.49,0.24-0.72,0.33
				c-0.24,0.09-0.45,0.14-0.63,0.14c-0.6,0.02-1.09-0.06-1.47-0.22c-0.38-0.17-0.68-0.39-0.89-0.68c-0.22-0.29-0.37-0.63-0.45-1.04
				c-0.08-0.41-0.12-0.84-0.12-1.3c0-0.25,0.02-0.53,0.06-0.85c0.04-0.32,0.12-0.69,0.25-1.12c0.12-0.43,0.3-0.95,0.52-1.56
				c0.23-0.6,0.51-1.33,0.86-2.18c-0.04,0-0.32,0.16-0.83,0.47c-0.51,0.31-1.07,0.78-1.67,1.41c-0.97,0.98-1.84,1.94-2.61,2.89
				c-0.77,0.95-1.56,2.01-2.36,3.17c-0.45,0.67-0.85,1.23-1.19,1.7c-0.34,0.46-0.63,0.78-0.88,0.93c-0.43-0.23-0.75-0.57-0.96-1.01
				c-0.21-0.44-0.42-0.94-0.46-1.38c-0.04-0.35,0.06-0.9,0.17-1.52c0.11-0.61,0.27-1.3,0.46-2.05s0.44-1.54,0.72-2.37
				c0.29-0.83,0.61-1.66,0.96-2.49c0.78-1.88,1.5-3.35,2.14-4.43C275.19,10.76,275.6,10.18,275.76,10.09z"/>
			<path class="st4" d="M288.04,27.4c-0.25,0-0.48-0.05-0.71-0.16s-0.43-0.24-0.6-0.4c-0.18-0.15-0.31-0.32-0.42-0.49
				c-0.1-0.18-0.15-0.32-0.15-0.42c0-0.25,0.03-0.58,0.09-0.98c0.06-0.4,0.15-0.78,0.28-1.15c0.12-0.37,0.28-0.69,0.46-0.95
				c0.19-0.27,0.39-0.4,0.62-0.41c0.58-0.01,1.16,0.18,1.74,0.58c0.59,0.4,1.02,0.85,1.31,1.34c-0.25,0.28-0.46,0.59-0.65,0.94
				c-0.19,0.35-0.37,0.68-0.56,0.98c-0.18,0.31-0.39,0.57-0.62,0.78C288.61,27.28,288.34,27.39,288.04,27.4z M288.72,19.06
				c0-0.57,0.15-1.39,0.45-2.48c0.3-1.08,0.68-2.29,1.16-3.6c0.47-1.32,1.01-2.68,1.6-4.08c0.6-1.4,1.2-2.71,1.81-3.94
				c0.61-1.22,1.19-2.28,1.74-3.18c0.56-0.9,1.04-1.49,1.45-1.79c0.33,0.06,0.68,0.21,1.06,0.45c0.38,0.24,0.74,0.51,1.06,0.81
				s0.62,0.62,0.86,0.96c0.25,0.33,0.39,0.63,0.43,0.88c-1.05,0.88-2.09,1.98-3.12,3.29c-1.03,1.32-1.98,2.77-2.85,4.38
				c-0.87,1.6-1.64,3.31-2.3,5.13c-0.66,1.82-1.15,3.68-1.48,5.57c-0.25-0.06-0.49-0.13-0.72-0.22c-0.24-0.09-0.44-0.22-0.6-0.38
				c-0.17-0.17-0.3-0.39-0.4-0.68C288.77,19.89,288.72,19.52,288.72,19.06z"/>
		</g>
	</g>
</g>
<g id="large">
</g>
<g id="small">
</g>
<g id="Layer_10">
</g>
</svg>
